<?xml version="1.0" encoding="utf-8"?>
<!-- Generator: Adobe Illustrator 18.1.0, SVG Export Plug-In . SVG Version: 6.00 Build 0)  -->
<svg version="1.1" id="Layer_1" xmlns="http://www.w3.org/2000/svg" xmlns:xlink="http://www.w3.org/1999/xlink" x="0px" y="0px"
	 viewBox="0 0 59 42" enable-background="new 0 0 59 42" xml:space="preserve">
<g>
	<text transform="matrix(1 0 0 1 1883.3813 64.43)" fill="#010101" font-family="'Gotham-Light'" font-size="12.8272">1</text>
	<path fill="#010101" d="M1895.2,43.6h-19.3c-1.3,0-2.3,1-2.3,2.3v23.2c0,1.3,1,2.3,2.3,2.3h19.3c1.3,0,2.3-1,2.3-2.3V45.9
		C1897.5,44.6,1896.5,43.6,1895.2,43.6z M1896.7,69.1c0,0.9-0.7,1.5-1.5,1.5h-19.3c-0.9,0-1.5-0.7-1.5-1.5V45.9
		c0-0.9,0.7-1.5,1.5-1.5h19.3c0.9,0,1.5,0.7,1.5,1.5V69.1L1896.7,69.1z M1879.3,42.5c0-3.4,2.8-6.2,6.2-6.2c3.4,0,6.2,2.8,6.2,6.2
		c0,0.2-0.2,0.4-0.4,0.4c-0.2,0-0.4-0.2-0.4-0.4c0-3-2.4-5.4-5.4-5.4c-3,0-5.4,2.4-5.4,5.4c0,0.2-0.2,0.4-0.4,0.4
		C1879.5,42.9,1879.3,42.7,1879.3,42.5z M1879.7,45.1c-0.8,0-1.4,0.6-1.4,1.4s0.6,1.4,1.4,1.4c0.8,0,1.4-0.6,1.4-1.4
		S1880.5,45.1,1879.7,45.1z M1879.7,47.1c-0.4,0-0.6-0.3-0.6-0.6c0-0.4,0.3-0.6,0.6-0.6c0.4,0,0.6,0.3,0.6,0.6
		C1880.4,46.8,1880.1,47.1,1879.7,47.1z M1891.3,45.1c-0.8,0-1.4,0.6-1.4,1.4s0.6,1.4,1.4,1.4c0.8,0,1.4-0.6,1.4-1.4
		C1892.7,45.7,1892.1,45.1,1891.3,45.1z M1891.3,47.1c-0.4,0-0.6-0.3-0.6-0.6c0-0.4,0.3-0.6,0.6-0.6c0.4,0,0.6,0.3,0.6,0.6
		C1892,46.8,1891.7,47.1,1891.3,47.1z"/>
</g>
<g>
	
		<line fill="none" stroke="#DD7564" stroke-width="3.3158" stroke-linecap="round" stroke-linejoin="round" stroke-miterlimit="10" x1="54.3" y1="21" x2="4.6" y2="21"/>
	
		<polyline fill="none" stroke="#DD7564" stroke-width="3.3158" stroke-linecap="round" stroke-linejoin="round" stroke-miterlimit="10" points="
		37.4,37.7 45.9,29.4 54.4,21 45.9,12.6 37.4,4.3 	"/>
</g>
</svg>
