<?xml version="1.0" encoding="utf-8"?>
<!-- Generator: Adobe Illustrator 18.1.0, SVG Export Plug-In . SVG Version: 6.00 Build 0)  -->
<svg version="1.1" id="Layer_1" xmlns="http://www.w3.org/2000/svg" xmlns:xlink="http://www.w3.org/1999/xlink" x="0px" y="0px"
	 viewBox="0 0 1920 1080" enable-background="new 0 0 1920 1080" xml:space="preserve">
<pattern  width="139.6" height="156.8" patternUnits="userSpaceOnUse" id="New_Pattern_2" viewBox="0 -156.8 139.6 156.8" overflow="visible">
	<g>
		<polygon fill="none" points="0,-156.8 139.6,-156.8 139.6,0 0,0 		"/>
		<path fill="#DD7564" d="M0-83.5C0.7-90,8.6-96.1,9.5-96.8c16.4-10.4,23.5-5.3,25-3.9c0.9,0.6,1.4,1.5,1.6,9.6
			c0.3,4.8,3.4,6.1,3.8,6.2c0.1,0,0.1,0,0.2,0.1l12.7,5.3l7-5.8l-11.3-28.4c0,0,0-0.1,0-0.1c-1.5-4.3-11.3-9.7-17.1-12.1
			c-6.1-2.5-5.4-10.6-4-14.9c7.2-18.2,25.6-15.8,25.8-15.8c5,1,7.1,3.8,7.9,5.9c0.9,2.3,0.6,4.3,0.6,4.6c0,0.1-2.4,13.5,3,20.2
			l17.4,22.2l17.8-14.8c0.1-0.1,0.3-0.2,0.5-0.3c0.2-0.1,4.8-1.4,8.6,5.8l22.5,40.3c0.6-0.4,1.3-0.6,2.1-0.6c1.6,0,3.3,0.9,4.6,2.3
			c0.9,1.1,1.5,2.4,1.7,3.7c0.1,1.4-0.3,2.7-1.3,3.6l-0.7,0.7c0.6,1.8,0.3,3.7-1,4.8l-13,12c-1.6,1.1-2.7,1-2.7,1
			c-1.5,0-3-0.7-4.2-1.9l-1.9,1.6c0,0,0.4,1.8-0.5,2.5L91.5-23.4c-1,0.7-1.7,0.1-1.7,0.1c-0.4-0.3-0.6-0.7-0.6-1.1l-2.6,2.2
			c0,0,0.9,2.4-1.2,4.2l-2.9,2.7c-0.1,1-0.6,1.9-1.3,2.5L67.9-0.8C67.2-0.3,66.4,0,65.5,0c-1.6,0-3.3-0.9-4.6-2.3
			c-2.1-2.4-2.3-5.5-0.4-7.2L61-9.9L20.8-38.5c-1.7-1.3-1.8-3.3-1.3-4.7c0.8-2.1,3.4-2.7,3.6-2.8c7.8-2.1,6.6-9.5,6.7-10.1
			c-0.3-2.3,0.7-4.8,2.2-6.2l3.1-2.6l-9-8.2c-1.6-1.4-4.4-1.9-5.4-2L8-75.3c-3.3,0-5.2-1.3-5.5-1.6C0.5-78.5-0.2-81.1,0-83.5z
			 M63.7-88.7l14.3-11.9l-17.5-22.3c-6.8-8.5-4.1-23.6-4-24.2c0.1-0.8,0.1-3.7-4.5-4.7c-1.2-0.1-14.6-1.4-20.2,12.6
			c-0.2,0.7-1.9,7.2,1.2,8.5c1.8,0.7,17.1,7.3,19.9,15L63.7-88.7z M38.9-68.1l9.4-7.8l-10.2-4.2c-1-0.4-6.7-2.8-7.1-10.7
			c0,0,0,0,0-0.1c-0.1-2.3-0.2-5.1-0.4-6.4c-1.3-0.8-6.6-2.9-18.5,4.6C10.4-91.2,5.4-86.6,5-83c-0.1,0.8,0.1,1.6,0.6,2.2
			C6-80.6,6.8-80.3,8-80.3l12.9,0.2c0.1,0,0.1,0,0.2,0c0.5,0,5.1,0.5,8.3,3.2c0,0,0,0,0,0L38.9-68.1z M66.3-3L66.3-3
			c1.2-1.3-0.7-3.3-0.7-3.3c-2.1-2.1-3.2-1.1-3.2-1.1c-0.6,0.5-0.5,2.1,0.7,3.3C63.1-4.1,65.1-2,66.3-3z M68.9-8.2L68.9-8.2
			c0,0,1.3-1.1-0.7-3.3c0,0-1.8-2.1-3.2-1.1c-0.7,0.5-0.5,2.1,0.7,3.3C65.7-9.3,67.5-7.2,68.9-8.2z M35.9-62c1.5,0.7,3.3,2.2,5,5.4
			l23.6,42.3l13.4-12.4c1.6-1.6,2.8-0.9,2.8-0.9c1.2-1,0.8-3.2,0.8-3.2L60.8-82.7L35.9-62z M117.5-53.8c-3-0.6-5.2-2.9-6.2-4.6
			l-31.5-40L64.8-86l21.4,53.6c0,0,1.8,4-1.2,7l0,0c0.1,0.1,0.2,0.3,0.4,0.4l4.8-4c-0.7-2.3,0.9-3.9,0.9-3.9l19.1-17.3
			c0.4-0.4,1.1-0.5,1.6-0.2c0.1,0,1.1,0.6,2,1.9l4.8-4C118-52.9,117.5-53.8,117.5-53.8z M121.5-51c-0.1,0-0.2-0.1-0.3-0.1l-2.4,2
			c0,0,1.8,1.3,2.8,0.7C122.5-48.8,121.5-51,121.5-51z M124.3-57.3c-0.2-0.3-0.4-0.5-0.6-0.8c-1.6-1.8-3.9-2.3-5.2-1.2
			c-0.2,0.1-0.3,0.3-0.4,0.5c0.7,0.2,1.6,0.2,2.5-0.2c1.3-0.5,2.7,0.1,3.2,1.4c0.1,0.2,0.1,0.3,0.1,0.5L124.3-57.3z M129.1-70.9
			l-22.8-40.8c-2.3-4.3-4.5-4.5-5.1-4.5l-17.6,14.6l33.3,42.2c0.2-0.3,0.4-0.6,0.7-0.8L129.1-70.9z"/>
	</g>
</pattern>
<rect x="2.7" y="-0.9" opacity="7.000000e-02" fill="url(#New_Pattern_2)" width="1920" height="1080"/>
</svg>
