<?xml version="1.0" encoding="utf-8"?>
<!-- Generator: Adobe Illustrator 18.1.0, SVG Export Plug-In . SVG Version: 6.00 Build 0)  -->
<svg version="1.1" id="Layer_1" xmlns="http://www.w3.org/2000/svg" xmlns:xlink="http://www.w3.org/1999/xlink" x="0px" y="0px"
	 viewBox="0 0 25 30" enable-background="new 0 0 25 30" xml:space="preserve">
<g>
	<text transform="matrix(1 0 0 1 1866.3813 58.43)" fill="#010101" font-family="'Gotham-Light'" font-size="12.8272">1</text>
	<path fill="#010101" d="M1878.2,37.6h-19.3c-1.3,0-2.3,1-2.3,2.3v23.2c0,1.3,1,2.3,2.3,2.3h19.3c1.3,0,2.3-1,2.3-2.3V39.9
		C1880.5,38.6,1879.5,37.6,1878.2,37.6z M1879.7,63.1c0,0.9-0.7,1.5-1.5,1.5h-19.3c-0.9,0-1.5-0.7-1.5-1.5V39.9
		c0-0.9,0.7-1.5,1.5-1.5h19.3c0.9,0,1.5,0.7,1.5,1.5V63.1L1879.7,63.1z M1862.3,36.5c0-3.4,2.8-6.2,6.2-6.2c3.4,0,6.2,2.8,6.2,6.2
		c0,0.2-0.2,0.4-0.4,0.4c-0.2,0-0.4-0.2-0.4-0.4c0-3-2.4-5.4-5.4-5.4c-3,0-5.4,2.4-5.4,5.4c0,0.2-0.2,0.4-0.4,0.4
		C1862.5,36.9,1862.3,36.7,1862.3,36.5z M1862.7,39.1c-0.8,0-1.4,0.6-1.4,1.4s0.6,1.4,1.4,1.4c0.8,0,1.4-0.6,1.4-1.4
		S1863.5,39.1,1862.7,39.1z M1862.7,41.1c-0.4,0-0.6-0.3-0.6-0.6c0-0.4,0.3-0.6,0.6-0.6c0.4,0,0.6,0.3,0.6,0.6
		C1863.4,40.8,1863.1,41.1,1862.7,41.1z M1874.3,39.1c-0.8,0-1.4,0.6-1.4,1.4s0.6,1.4,1.4,1.4c0.8,0,1.4-0.6,1.4-1.4
		C1875.7,39.7,1875.1,39.1,1874.3,39.1z M1874.3,41.1c-0.4,0-0.6-0.3-0.6-0.6c0-0.4,0.3-0.6,0.6-0.6c0.4,0,0.6,0.3,0.6,0.6
		C1875,40.8,1874.7,41.1,1874.3,41.1z"/>
</g>
<g>
	<path fill="#010101" d="M20,7.1H5c-1,0-1.8,0.8-1.8,1.8v17.9c0,1,0.8,1.8,1.8,1.8H20c1,0,1.8-0.8,1.8-1.8V8.8
		C21.8,7.9,21,7.1,20,7.1z M21.2,26.8c0,0.7-0.5,1.2-1.2,1.2H5c-0.7,0-1.2-0.5-1.2-1.2V8.8c0-0.7,0.5-1.2,1.2-1.2H20
		c0.7,0,1.2,0.5,1.2,1.2L21.2,26.8L21.2,26.8z M7.7,6.2c0-2.6,2.1-4.8,4.8-4.8s4.8,2.1,4.8,4.8c0,0.2-0.1,0.3-0.3,0.3
		c-0.2,0-0.3-0.1-0.3-0.3c0-2.3-1.9-4.2-4.2-4.2S8.3,3.9,8.3,6.2c0,0.2-0.1,0.3-0.3,0.3C7.9,6.5,7.7,6.4,7.7,6.2z M8,8.2
		c-0.6,0-1.1,0.5-1.1,1.1s0.5,1.1,1.1,1.1c0.6,0,1.1-0.5,1.1-1.1C9.1,8.7,8.6,8.2,8,8.2z M8,9.8c-0.3,0-0.5-0.2-0.5-0.5
		C7.5,9,7.7,8.8,8,8.8c0.3,0,0.5,0.2,0.5,0.5C8.5,9.6,8.3,9.8,8,9.8z M17,8.2c-0.6,0-1.1,0.5-1.1,1.1s0.5,1.1,1.1,1.1
		c0.6,0,1.1-0.5,1.1-1.1C18.1,8.7,17.6,8.2,17,8.2z M17,9.8c-0.3,0-0.5-0.2-0.5-0.5c0-0.3,0.2-0.5,0.5-0.5c0.3,0,0.5,0.2,0.5,0.5
		C17.5,9.6,17.3,9.8,17,9.8z"/>
</g>
</svg>
