<?xml version="1.0" encoding="utf-8"?>
<!-- Generator: Adobe Illustrator 18.1.0, SVG Export Plug-In . SVG Version: 6.00 Build 0)  -->
<svg version="1.1" id="Layer_1" xmlns="http://www.w3.org/2000/svg" xmlns:xlink="http://www.w3.org/1999/xlink" x="0px" y="0px"
	 viewBox="0 14.9 25 6.1" enable-background="new 0 14.9 25 6.1" xml:space="preserve">
<g>
	<g>
		<rect x="1.2" y="15.4" fill="none" width="20.4" height="3.1"/>
		<text transform="matrix(1 0 0 1 1.181 16.425)" fill="#010101" font-family="'Gotham-Book'" font-size="1.353">Questions: 800-876-8076</text>
		<text transform="matrix(1 0 0 1 1.181 18.0515)" fill="#010101" font-family="'Gotham-Book'" font-size="1.353">Mon - Fri 8am-5pm ET</text>
	</g>
	<g>
		<g>
			<g>
				<path fill="#010101" d="M8.3,19.6L8.3,19.6l-0.1,0.4c0,0,0,0.1,0,0.1s0,0,0.1,0c0.1,0,0.2-0.2,0.2-0.3c0-0.4-0.3-0.4-0.4-0.4
					c-0.2,0-0.4,0.2-0.4,0.5s0.2,0.5,0.4,0.5c0.2,0,0.3-0.1,0.4-0.2h0.1c-0.1,0.2-0.2,0.3-0.4,0.3c-0.2,0-0.4-0.2-0.4-0.5
					c0-0.3,0.2-0.5,0.4-0.5c0.2,0,0.4,0.1,0.4,0.4c0,0.2-0.2,0.4-0.3,0.4c-0.1,0-0.1,0-0.1-0.1c0,0.1-0.1,0.1-0.2,0.1
					c-0.1,0-0.2-0.1-0.2-0.2c0-0.2,0.1-0.4,0.3-0.4C8.2,19.6,8.2,19.7,8.3,19.6L8.3,19.6z M8.2,20.1c0-0.1,0.1-0.3,0.1-0.3
					s0-0.1-0.1-0.1c-0.1,0-0.2,0.2-0.2,0.4c0,0.1,0,0.2,0.1,0.2C8.1,20.2,8.1,20.2,8.2,20.1z"/>
				<path fill="#010101" d="M8.7,19.8L8.7,19.8L8.7,19.8l0.1-0.2l0.1,0v0.2H9v0.1H8.8v0.5c0,0.1,0,0.1,0.1,0.1c0,0,0,0,0.1,0v0.1
					c0,0,0,0-0.1,0c-0.1,0-0.1-0.1-0.1-0.1L8.7,19.8C8.8,19.8,8.7,19.8,8.7,19.8z"/>
				<path fill="#010101" d="M9.2,20.5v-1h0.1v0.4l0,0c0-0.1,0.1-0.1,0.1-0.1c0.2,0,0.2,0.1,0.2,0.2v0.5H9.5V20c0-0.1,0-0.2-0.1-0.2
					c-0.1,0-0.1,0.1-0.1,0.2L9.2,20.5L9.2,20.5z"/>
				<path fill="#010101" d="M9.8,20.1L9.8,20.1c0,0.2,0,0.3,0.1,0.3c0.1,0,0.1-0.1,0.1-0.2h0.1c0,0.2-0.1,0.2-0.2,0.2
					C9.8,20.5,9.7,20.4,9.8,20.1L9.8,20.1c-0.1-0.3,0-0.4,0.1-0.4c0.2,0,0.2,0.2,0.2,0.4H9.8z M10.1,20.1c0-0.2,0-0.3-0.1-0.3
					c-0.1,0-0.1,0.1-0.1,0.3H10.1z"/>
				<path fill="#010101" d="M10.6,20c0-0.1,0-0.2-0.1-0.2c0,0-0.1,0-0.1,0.1c0,0,0,0.1,0,0.2c0,0.1,0,0.3,0.1,0.3
					c0.1,0,0.1-0.1,0.1-0.2h0.1c0,0.2-0.1,0.2-0.2,0.2c-0.2,0-0.2-0.2-0.2-0.4c0-0.1,0-0.2,0-0.2c0-0.1,0.1-0.1,0.2-0.1
					C10.6,19.7,10.7,19.8,10.6,20L10.6,20L10.6,20z"/>
				<path fill="#010101" d="M10.9,20.5v-1H11L10.9,20.5L10.9,20.5z"/>
				<path fill="#010101" d="M11.3,19.6v-0.1h0.1L11.3,19.6L11.3,19.6z M11.3,20.5v-0.7h0.1L11.3,20.5L11.3,20.5z"/>
				<path fill="#010101" d="M11.7,19.9L11.7,19.9c0-0.1,0.1-0.1,0.2-0.1c0.2,0,0.2,0.2,0.2,0.3v0.2c0,0.2-0.1,0.3-0.2,0.3
					c0,0-0.1,0-0.1-0.1l0,0v0.4h-0.1L11.7,19.9L11.7,19.9L11.7,19.9L11.7,19.9z M11.7,20.2c0,0.2,0.1,0.2,0.1,0.2
					c0.1,0,0.1-0.1,0.1-0.1c0,0,0-0.2,0-0.2c0-0.1,0-0.3-0.1-0.3c-0.1,0-0.1,0.1-0.1,0.2V20.2z"/>
			</g>
		</g>
	</g>
</g>
</svg>
