<?xml version="1.0" encoding="utf-8"?>
<!-- Generator: Adobe Illustrator 18.1.0, SVG Export Plug-In . SVG Version: 6.00 Build 0)  -->
<svg version="1.1" id="Layer_1" xmlns="http://www.w3.org/2000/svg" xmlns:xlink="http://www.w3.org/1999/xlink" x="0px" y="0px"
	 viewBox="0 0 21.1 21" enable-background="new 0 0 21.1 21" xml:space="preserve">
<path fill="#010101" d="M82.1,333.2h-9c-2.5,0-4.5,2-4.5,4.5v9.1c0,2.5,2,4.5,4.5,4.5h9c2.5,0,4.5-2,4.5-4.5v-9.1
	C86.6,335.2,84.6,333.2,82.1,333.2z M73.1,334.9h9c1.6,0,2.8,1.3,2.8,2.8v1.5h-4.8c-0.7-0.5-1.5-0.8-2.5-0.8s-1.8,0.3-2.5,0.8h-4.9
	v-1.5C70.3,336.1,71.6,334.9,73.1,334.9z M79.5,342.7c0,1-0.8,1.8-1.8,1.8c-1,0-1.8-0.8-1.8-1.8c0-1,0.8-1.8,1.8-1.8
	C78.7,340.9,79.5,341.7,79.5,342.7z M82.1,349.6h-9c-1.6,0-2.8-1.3-2.8-2.8v-5.8h3.5c-0.3,0.6-0.4,1.2-0.4,1.8
	c0,2.4,1.9,4.3,4.3,4.3c2.3,0,4.3-1.9,4.3-4.3c0-0.6-0.1-1.3-0.4-1.8h3.4v5.8C84.9,348.3,83.7,349.6,82.1,349.6z"/>
<path fill="#010101" d="M5.1,343.5c0.5,2.5,1.8,4.7,3.7,6.1c1.7,1.3,3.9,2,6.1,2c2.9,0,5.7-1.2,7.6-3.3c1.5-1.6,3.1-4.5,2.6-9.1
	c0-0.3-0.1-0.6-0.1-0.8c0.3-0.4,0.6-0.7,0.6-0.7c0.5-0.6,0.6-1.4,0.4-2.1c-0.3-0.7-0.9-1.2-1.7-1.2c-0.3,0-0.6,0-1,0
	c-0.2,0-0.4,0-0.6,0c-1.2-1-2.7-1.6-4.4-1.6c-1.8,0-3.5,0.7-4.5,2c-1.1,1.3-1.4,3.1-1.1,5c-1-0.2-1.9-0.6-2.3-0.8
	c-0.3-0.1-0.6-0.2-0.8-0.2c-0.4,0-0.9,0.1-1.2,0.4c-0.6,0.5-0.9,1.2-0.7,2c0,0,0,0.1,0,0.1c-0.2-0.1-0.4-0.1-0.6-0.1
	c-0.4,0-0.9,0.1-1.2,0.4C5.2,342,5,342.8,5.1,343.5z M7,343.1c0,0,2.1,1,4.2,1.2c-0.8-1-1.3-2.2-1.6-3.6c0,0,2.5,1.2,4.7,1.2
	c0.2,0,0.4,0,0.5,0c0.1-0.6,0.1-1.4-0.1-2.4c-0.6-3.1,1.4-4.8,3.6-4.8c1.3,0,2.7,0.6,3.6,1.7c0.4-0.1,0.9-0.1,1.4-0.1
	c0.3,0,0.5,0,0.8,0c0,0-0.6,0.7-1.3,1.7c0.2,0.4,0.3,0.9,0.3,1.4c0.7,6.8-3.8,10.3-8.2,10.3C11.5,349.7,8,347.5,7,343.1z"/>
<path fill="#010101" d="M55.3,332.1H38.1c-0.9,0-1.6,0.7-1.6,1.6v17.2c0,0.9,0.7,1.6,1.6,1.6h8.7h4h4.4c0.9,0,1.6-0.7,1.6-1.6v-17.2
	C56.9,332.8,56.2,332.1,55.3,332.1z M47.9,351.3v-7.5h-2.5V342h2.5v-2.7c0-1.1,0.3-1.9,0.9-2.5c0.6-0.6,1.4-0.8,2.4-0.8
	c0.7,0,1.3,0,1.7,0.1v1.6l-1,0c-2,0-2,1.5-2,1.9v2.4h2.8l-0.2,1.8h-2.6v7.5H47.9z M55.8,350.8c0,0.3-0.2,0.6-0.6,0.6h-4.4v-6.5h2.5
	l0.5-3.9h-3v-1.4c0-0.4,0.1-0.6,0.2-0.7c0.1-0.1,0.4-0.2,0.8-0.2l2.1,0v-3.6l-0.5-0.1c-0.2,0-1.2-0.1-2.3-0.1
	c-1.3,0-2.3,0.4-3.1,1.1c-0.8,0.8-1.2,1.9-1.2,3.2v1.7h-2.5v3.9h2.5v6.5h-8.7c-0.3,0-0.6-0.2-0.6-0.6v-17.2c0-0.3,0.2-0.6,0.6-0.6
	h17.2c0.3,0,0.6,0.2,0.6,0.6V350.8z"/>
<path fill="#010101" d="M15.8,0H5.3C2.4,0,0,2.4,0,5.3v10.6c0,2.9,2.4,5.3,5.3,5.3h10.5c2.9,0,5.3-2.4,5.3-5.3V5.3
	C21,2.4,18.7,0,15.8,0z M5.3,1.9h10.5c1.8,0,3.3,1.5,3.3,3.3v1.8h-5.6c-0.8-0.6-1.8-0.9-2.9-0.9S8.6,6.5,7.7,7.1H1.9V5.3
	C1.9,3.4,3.4,1.9,5.3,1.9z M12.7,11.1c0,1.1-0.9,2.1-2.1,2.1c-1.1,0-2.1-0.9-2.1-2.1c0-1.1,0.9-2.1,2.1-2.1
	C11.8,9.1,12.7,10,12.7,11.1z M15.8,19.2H5.3c-1.8,0-3.3-1.5-3.3-3.3V9h4.2c-0.3,0.6-0.5,1.4-0.5,2.1c0,2.8,2.2,5,5,5
	c2.8,0,5-2.2,5-5c0-0.8-0.2-1.5-0.5-2.1h3.9v6.9C19.1,17.7,17.6,19.2,15.8,19.2z"/>
<path fill="#010101" d="M-31.6,12c0.5,2.5,1.8,4.7,3.7,6.1c1.7,1.3,3.9,2,6.1,2c2.9,0,5.7-1.2,7.6-3.3c1.5-1.6,3.1-4.5,2.6-9.1
	c0-0.3-0.1-0.6-0.1-0.8c0.3-0.4,0.6-0.7,0.6-0.7c0.5-0.6,0.6-1.4,0.4-2.1c-0.3-0.7-0.9-1.2-1.7-1.2c-0.3,0-0.6,0-1,0
	c-0.2,0-0.4,0-0.6,0c-1.2-1-2.7-1.6-4.4-1.6c-1.8,0-3.5,0.7-4.5,2c-1.1,1.3-1.4,3.1-1.1,5c-1-0.2-1.9-0.6-2.3-0.8
	c-0.3-0.1-0.6-0.2-0.8-0.2c-0.4,0-0.9,0.1-1.2,0.4c-0.6,0.5-0.9,1.2-0.7,2c0,0,0,0.1,0,0.1c-0.2-0.1-0.4-0.1-0.6-0.1
	c-0.4,0-0.9,0.1-1.2,0.4C-31.4,10.5-31.7,11.2-31.6,12z M-29.6,11.5c0,0,2.1,1,4.2,1.2c-0.8-1-1.3-2.2-1.6-3.6c0,0,2.5,1.2,4.7,1.2
	c0.2,0,0.4,0,0.5,0c0.1-0.6,0.1-1.4-0.1-2.4c-0.6-3.1,1.4-4.8,3.6-4.8c1.3,0,2.7,0.6,3.6,1.7c0.4-0.1,0.9-0.1,1.4-0.1
	c0.3,0,0.5,0,0.8,0c0,0-0.6,0.7-1.3,1.7c0.2,0.4,0.3,0.9,0.3,1.4c0.7,6.8-3.8,10.3-8.2,10.3C-25.2,18.1-28.7,16-29.6,11.5z"/>
</svg>
