<?xml version="1.0" encoding="utf-8"?>
<!-- Generator: Adobe Illustrator 17.0.0, SVG Export Plug-In . SVG Version: 6.00 Build 0)  -->
<!DOCTYPE svg PUBLIC "-//W3C//DTD SVG 1.1//EN" "http://www.w3.org/Graphics/SVG/1.1/DTD/svg11.dtd">
<svg version="1.1" id="Layer_1" xmlns="http://www.w3.org/2000/svg" xmlns:xlink="http://www.w3.org/1999/xlink" x="0px" y="0px"
	 width="960px" height="560px" viewBox="0 0 960 560" enable-background="new 0 0 960 560" xml:space="preserve">
<g>
	<path fill="#DD7564" d="M170.459,158.264V76.76h14.913v67.978h30.174v13.526H170.459z"/>
	<path fill="#DD7564" d="M228.841,76.76h46.706v13.526h-31.792v19.075h29.711v13.526h-29.711v21.734h32.833v13.526h-47.746V76.76z"
		/>
	<path fill="#DD7564" d="M289.188,158.264l25.203-81.504h17.688l24.162,81.504h-15.029l-4.971-17.226h-27.515l-5.202,17.226H289.188
		z M332.426,127.397l-9.595-34.798h-0.231l-10.174,34.798H332.426z"/>
	<path fill="#DD7564" d="M383.987,158.264h-14.913V76.76h29.596c11.908,0.116,24.162,4.624,24.162,21.272
		c0,10.636-5.896,17.572-14.451,19.769v0.231c11.445,1.503,11.445,9.711,12.717,21.041c0.694,5.202,1.272,14.798,4.046,19.307
		h-16.532c-1.272-7.168-1.965-14.567-2.659-21.85c-0.347-4.509-1.387-10.752-6.243-10.983h-15.838v32.717H383.987z M383.987,111.905
		h12.486c6.59-0.116,10.405-3.931,10.405-11.214s-3.815-10.289-10.405-10.405h-12.486V111.905z"/>
	<path fill="#DD7564" d="M481.329,158.264L453.93,90.518l-0.231,0.231v67.515H439.71V76.76h22.197l26.474,64.163l0.231-0.231V76.76
		h13.989v81.504H481.329z"/>
	<path fill="#DD7564" d="M553.354,158.264V76.76h14.913V108.9h26.359V76.76h15.145v81.504h-14.913v-35.839h-26.474v35.839H553.354z"
		/>
	<path fill="#DD7564" d="M626.187,117.455c0-24.047,10.405-42.428,33.411-42.428c23.006,0,33.411,18.382,33.411,42.428
		s-10.405,42.428-33.411,42.428C636.591,159.999,626.187,141.501,626.187,117.455z M642.025,117.455
		c0,13.989,2.775,29.827,17.573,29.827c14.798,0,17.573-15.838,17.573-29.827s-2.775-29.827-17.573-29.827
		C644.8,87.743,642.025,103.466,642.025,117.455z"/>
	<path fill="#DD7564" d="M740.177,76.76h16.879l12.139,61.272h0.231L780.64,76.76h14.22l-17.688,81.504h-16.532l-12.486-62.082
		h-0.231l-13.526,62.082h-16.994L700.407,76.76h15.376l10.752,61.272h0.231L740.177,76.76z"/>
	<path fill="#DD7564" d="M165.141,185.086h56.417v13.526h-20.81v67.978h-14.913v-67.978h-20.694V185.086z"/>
	<path fill="#DD7564" d="M227.222,225.78c0-24.047,10.405-42.428,33.411-42.428s33.411,18.382,33.411,42.428
		s-10.405,42.428-33.411,42.428C237.627,268.324,227.222,249.826,227.222,225.78z M243.176,225.78
		c0,13.989,2.775,29.827,17.572,29.827c14.798,0,17.572-15.838,17.572-29.827s-2.775-29.827-17.572-29.827
		C245.951,195.953,243.176,211.791,243.176,225.78z"/>
	<path fill="#DD7564" d="M404.219,185.086v50.983c0,21.619-13.295,32.139-30.174,32.139s-30.174-10.52-30.174-32.139v-50.983h14.913
		v44.278c0,13.757,0.578,26.359,15.26,26.359c14.682,0,15.26-12.486,15.26-26.359v-44.278H404.219L404.219,185.086z"/>
	<path fill="#DD7564" d="M461.098,208.323c-0.578-8.208-4.393-12.254-11.561-12.254c-5.549,0-11.098,3.353-11.098,10.52
		c0,8.786,6.705,9.827,12.717,11.561c10.636,3.121,26.243,6.705,26.243,23.006c0,20.231-15.029,27.168-29.943,27.168
		c-15.954,0-27.168-7.168-26.706-27.746h15.26c-0.578,9.017,3.815,15.145,11.676,15.145c6.012,0,13.873-2.197,13.873-10.867
		c0-9.596-9.942-10.289-15.954-12.023c-9.711-2.775-23.006-7.977-23.006-22.428c0-18.613,14.682-26.821,28.902-26.821
		c13.526,0,24.047,8.555,24.047,24.971h-14.451V208.323z"/>
	<path fill="#DD7564" d="M493.006,185.086h46.706v13.526h-31.677v19.075h29.711v13.526h-29.711v21.734h32.833v13.526h-47.746
		v-81.388H493.006z"/>
	<path fill="#DD7564" d="M605.608,266.589h-14.913v-81.504h14.913V266.589z"/>
	<path fill="#DD7564" d="M618.557,185.086h56.417v13.526H654.28v67.978h-14.913v-67.978h-20.694v-13.526H618.557z"/>
	<path fill="#DD7564" d="M679.482,251.56h14.22l-11.445,27.63h-9.942L679.482,251.56z"/>
	<path fill="#DD7564" d="M165.141,374.914l25.203-81.504h17.688l24.162,81.504h-15.029l-4.971-17.226h-27.63l-5.202,17.226H165.141z
		 M208.378,344.047l-9.595-34.798h-0.231l-10.174,34.798H208.378z"/>
	<path fill="#DD7564" d="M287.223,374.914l-27.515-67.747l-0.231,0.231v67.515h-13.873v-81.504h22.197l26.474,64.163l0.231-0.231
		v-63.931h13.989v81.504L287.223,374.914L287.223,374.914z"/>
	<path fill="#DD7564" d="M326.299,293.411h23.7c21.734-0.231,35.145,12.37,35.145,40.81c0,28.324-13.526,40.925-35.145,40.81h-23.7
		V293.411z M341.212,361.388h7.746c17.688,0.231,20.347-14.22,20.347-27.168c0-12.948-2.659-27.399-20.347-27.168h-7.746V361.388z"
		/>
	<path fill="#DD7564" d="M478.786,374.914H466.3l-18.382-69.943l-0.231,0.231v69.827h-13.989v-81.504h24.509l14.567,59.307h0.231
		l15.838-59.307h23.584v81.504H498.44v-69.827l-0.231-0.231L478.786,374.914z"/>
	<path fill="#DD7564" d="M525.954,374.914l25.203-81.504h17.688l24.162,81.504h-15.029l-4.971-17.226h-27.515l-5.202,17.226H525.954
		z M569.307,344.047l-9.595-34.798h-0.231l-10.174,34.798H569.307z"/>
	<path fill="#DD7564" d="M621.562,328.671h0.231l23.122-35.261h17.457l-25.549,36.417l27.746,45.087h-18.613l-24.162-41.503h-0.231
		v41.503h-15.029v-81.504h15.029V328.671z"/>
	<path fill="#DD7564" d="M675.783,293.411h46.706v13.526h-31.677v19.075h29.711v13.526h-29.711v21.734h32.833v13.526h-47.746
		v-81.388H675.783z"/>
	<path fill="#DD7564" d="M184.794,483.239h-15.029v-81.504h14.913v81.504H184.794z"/>
	<path fill="#DD7564" d="M197.627,401.736h56.417v13.526H233.35v67.978h-14.913v-67.978h-20.81V401.736z"/>
	<path fill="#DD7564" d="M318.322,456.65l-23.469-54.914h17.457l14.335,37.341l14.682-37.341h15.376l-23.469,54.914v26.59h-14.913
		V456.65z"/>
	<path fill="#DD7564" d="M362.484,442.545c0-24.047,10.405-42.428,33.411-42.428c23.006,0,33.411,18.382,33.411,42.428
		c0,24.047-10.405,42.428-33.411,42.428C372.889,484.974,362.484,466.592,362.484,442.545z M378.438,442.545
		c0,13.989,2.775,29.827,17.572,29.827c14.798,0,17.572-15.838,17.572-29.827c0-13.989-2.775-29.827-17.572-29.827
		C381.213,412.718,378.438,428.557,378.438,442.545z"/>
	<path fill="#DD7564" d="M506.879,401.736v51.099c0,21.619-13.295,32.139-30.174,32.139c-16.879,0-30.174-10.52-30.174-32.139
		v-50.983h14.913v44.278c0,13.757,0.578,26.359,15.26,26.359c14.682,0,15.26-12.486,15.26-26.359v-44.278h14.913V401.736z"/>
	<path fill="#DD7564" d="M540.752,483.239h-14.914v-81.504h29.596c11.908,0.116,24.162,4.624,24.162,21.272
		c0,10.636-5.896,17.572-14.451,19.769v0.231c11.445,1.503,11.445,9.711,12.717,21.041c0.694,5.202,1.272,14.798,4.046,19.307
		h-16.532c-1.272-7.168-1.965-14.567-2.659-21.85c-0.347-4.509-1.387-10.752-6.243-10.983h-15.838v32.717H540.752z M540.752,436.881
		h12.486c6.59-0.116,10.405-3.931,10.405-11.214c0-7.283-3.815-10.289-10.405-10.405h-12.486V436.881z"/>
	<path fill="#DD7564" d="M633.933,424.973c-0.578-8.208-4.393-12.254-11.561-12.254c-5.549,0-11.098,3.353-11.098,10.52
		c0,8.786,6.705,9.827,12.717,11.561c10.636,3.121,26.243,6.705,26.243,23.006c0,20.231-15.029,27.168-29.943,27.168
		c-15.954,0-27.168-7.168-26.706-27.746h15.26c-0.578,9.017,3.815,15.145,11.676,15.145c6.012,0,13.873-2.197,13.873-10.867
		c0-9.595-9.942-10.289-15.954-12.023c-9.711-2.775-23.006-7.977-23.006-22.428c0-18.613,14.682-26.821,28.902-26.821
		c13.526,0,24.047,8.555,24.047,24.971h-14.451V424.973z"/>
	<path fill="#DD7564" d="M684.222,461.043h-9.942l-1.734-59.423h12.948L684.222,461.043z M673.239,483.239V468.21h12.254v15.029
		H673.239z"/>
</g>
</svg>
