<?xml version="1.0" encoding="utf-8"?>
<!-- Generator: Adobe Illustrator 18.1.0, SVG Export Plug-In . SVG Version: 6.00 Build 0)  -->
<svg version="1.1" id="Layer_1" xmlns="http://www.w3.org/2000/svg" xmlns:xlink="http://www.w3.org/1999/xlink" x="0px" y="0px"
	 viewBox="0 0 90 30" enable-background="new 0 0 90 30" xml:space="preserve">
<g>
	<g>
		<g>
			<path fill="#010101" d="M76.6,9.3c-1.2,0-2.4,0.4-3.3,1.3c-1.8,1.8-1.8,4.6,0,6.4c1.7,1.7,4.5,1.7,6.3,0.2l3.6,3.5
				c0.1,0,0.1,0,0.2,0c0.1,0,0.1-0.1,0-0.2L79.8,17c0,0,0,0,0,0c1.8-1.8,1.8-4.6,0-6.4C78.9,9.8,77.8,9.3,76.6,9.3L76.6,9.3z
				 M76.6,9.6c1.1,0,2.2,0.4,3.1,1.2c1.7,1.7,1.7,4.3,0,6c-1.7,1.7-4.4,1.7-6.1,0c-1.7-1.7-1.7-4.3,0-6C74.4,10,75.5,9.6,76.6,9.6
				L76.6,9.6z"/>
		</g>
		<path fill="none" stroke="#010101" stroke-width="0.4032" stroke-miterlimit="10" d="M82.9,23.7H7.1C3.7,23.7,1,21,1,17.6v-5.2
			C1,9,3.7,6.3,7.1,6.3h75.8c3.4,0,6.1,2.7,6.1,6.1v5.2C89,21,86.3,23.7,82.9,23.7z"/>
	</g>
</g>
</svg>
