<?xml version="1.0" encoding="utf-8"?>
<!-- Generator: Adobe Illustrator 17.0.0, SVG Export Plug-In . SVG Version: 6.00 Build 0)  -->
<!DOCTYPE svg PUBLIC "-//W3C//DTD SVG 1.1//EN" "http://www.w3.org/Graphics/SVG/1.1/DTD/svg11.dtd">
<svg version="1.1" id="Layer_1" xmlns="http://www.w3.org/2000/svg" xmlns:xlink="http://www.w3.org/1999/xlink" x="0px" y="0px"
	 width="960px" height="213px" viewBox="0 156.5 960 213" enable-background="new 0 156.5 960 213" xml:space="preserve">
<g>
	<g>
		<path fill="#010101" d="M496.273,321.55L496.273,321.55h-1.993l0,0h-14.391h-4.428h-6.421h-5.535l0,0l0,0h-4.649l-0.664,5.424
			c0,0.996,0.443,1.993,0.996,2.768l0,0c0.221,0.221,0.332,0.443,0.553,0.664c0,0,0.111,0.111,0.221,0.111
			c0.221,0.221,0.443,0.332,0.664,0.443c0.111,0.111,0.221,0.111,0.443,0.221c0.221,0.111,0.332,0.221,0.553,0.221
			c0.221,0.111,0.443,0.111,0.664,0.221c0.111,0,0.221,0.111,0.332,0.111c0.332,0.111,0.664,0.111,1.107,0.111l0,0h5.535h6.199l0,0
			h4.428h10.849h3.542h2.103c0.332,0,0.775,0,1.107-0.111c0.111,0,0.221-0.111,0.332-0.111c0.221-0.111,0.443-0.111,0.664-0.221
			c0.221-0.111,0.332-0.221,0.553-0.221c0.111-0.111,0.221-0.111,0.443-0.221c0.221-0.111,0.443-0.332,0.664-0.443
			c0,0,0.111-0.111,0.221-0.111c0.221-0.221,0.443-0.443,0.553-0.664l0,0c0.553-0.775,0.886-1.771,0.996-2.768l-0.664-5.424H496.273
			z"/>
		<path fill="#010101" d="M534.465,253.247h-30.221l-2.546-17.601l14.723-11.845c0.332-0.221,0.554-0.443,0.775-0.775
			c1.439-1.661,2.325-3.653,2.657-5.867c0.111-0.443,0.111-0.775,0-1.218c-0.111-1.882-0.443-3.764-0.996-5.535
			c-3.875-14.059-18.708-23.358-37.86-23.579l0,0h-1.107h-0.775h-1.55v0.111c-18.487,0.554-32.878,9.631-36.753,23.579
			c-0.443,1.771-0.775,3.542-0.996,5.535c0,0.443,0,0.775,0,1.218c0.332,2.103,1.218,4.096,2.657,5.867
			c0.221,0.221,0.443,0.554,0.775,0.775l14.723,11.845l-2.435,17.491h-30.221c-2.989,0-5.314,2.325-5.314,5.203v67.638
			c0,2.878,2.435,5.203,5.314,5.203h0.664h18.708h1.882h2.989l0.664-2.546l0,0v-0.111h0.775c2.657,0,4.871-1.882,5.314-4.428
			l0.221-1.218l4.871-35.314l3.542-24.022h1.55l0,0h13.395h3.21h3.542h7.638h0.775l3.542,24.022l4.871,35.314l0.221,1.218
			c0.332,2.546,2.657,4.428,5.314,4.428h0.775v0.111l0,0l0.664,2.546h2.989h1.882h18.708h0.664c2.989,0,5.314-2.325,5.314-5.203
			V258.45C539.889,255.572,537.454,253.247,534.465,253.247z M446.79,312.694l-0.886,8.081h-15.277v-4.649v-5.978v-46.605h23.358
			L446.79,312.694z M492.509,229.557c-1.439,1.107-2.103,2.878-1.882,4.649l2.768,18.93h-13.506h-3.21h-3.542h-6.863l2.768-19.041
			c0.221-1.771-0.443-3.542-1.882-4.649l-12.731-10.184l-2.103-1.661c-0.775-0.996-1.328-2.325-1.328-3.653c0-0.111,0-0.221,0-0.332
			c0-0.111,0-0.221,0.111-0.332c0.332-0.996,0.664-1.993,1.107-2.878c3.875-7.86,13.727-12.952,26.236-13.173h0.443
			c0.221,0,0.553,0.111,0.775,0.111c0.111,0,0.111,0,0.221,0l0,0c0.111,0,0.111,0,0.221,0c0.332,0,0.664,0,0.886-0.111
			c12.62,0.221,22.583,5.203,26.458,13.173c0.443,0.886,0.886,1.882,1.107,2.878c0,0.111,0,0.221,0.111,0.332
			c0,0.111,0,0.221,0,0.332c0,1.439-0.554,2.657-1.328,3.653l-2.103,1.661L492.509,229.557z M529.151,310.258v5.978v4.649h-15.166
			l-0.886-8.081l-7.196-49.151h23.358L529.151,310.258L529.151,310.258z"/>
	</g>
	<g>
		<path fill="#010101" d="M436.052,346.125h-6.753v16.716h-2.546v-16.716H420v-2.214h16.052V346.125z"/>
		<path fill="#010101" d="M453.1,362.731h-2.546v-9.188h-9.41v9.299h-2.546v-18.93h2.546v7.417h9.41v-7.417h2.546V362.731z"/>
		<path fill="#010101" d="M470.59,362.731h-12.399v-18.93h12.509v2.214h-9.963v5.203h9.963v2.214h-9.963v6.974h9.963v2.325H470.59z"
			/>
		<path fill="#010101" d="M498.376,361.402c-0.443,0.221-0.886,0.443-1.218,0.554c-0.332,0.221-0.886,0.332-1.439,0.553
			c-0.554,0.111-1.107,0.332-1.661,0.443c-0.554,0.111-1.218,0.221-1.993,0.221c-1.328,0-2.657-0.221-3.764-0.553
			s-2.103-0.996-2.878-1.771c-0.775-0.775-1.439-1.882-1.882-3.1c-0.443-1.218-0.664-2.657-0.664-4.317
			c0-1.55,0.221-2.989,0.664-4.207c0.443-1.218,1.107-2.214,1.882-3.1c0.775-0.775,1.771-1.439,2.878-1.882
			c1.107-0.443,2.435-0.664,3.764-0.664c0.996,0,1.993,0.111,2.989,0.332s2.103,0.664,3.321,1.328v2.989h-0.221
			c-0.996-0.886-2.103-1.55-3.1-1.882c-0.996-0.443-2.103-0.553-3.321-0.553c-0.996,0-1.771,0.111-2.546,0.443
			c-0.775,0.332-1.439,0.775-2.103,1.439c-0.554,0.664-0.996,1.439-1.328,2.435c-0.332,0.996-0.443,2.103-0.443,3.321
			c0,1.328,0.221,2.435,0.553,3.432c0.332,0.996,0.775,1.771,1.439,2.325c0.553,0.664,1.328,1.107,2.103,1.439
			c0.775,0.332,1.66,0.443,2.546,0.443c1.218,0,2.325-0.221,3.432-0.664c1.107-0.443,2.103-0.996,2.989-1.882h0.221v2.878H498.376z"
			/>
		<path fill="#010101" d="M513.875,362.731h-11.956v-18.93h2.546v16.716h9.41V362.731L513.875,362.731z"/>
		<path fill="#010101" d="M523.063,362.731h-7.528v-1.882h2.435v-15.055h-2.435v-1.882h7.528v1.882h-2.435v15.055h2.435V362.731z"/>
		<path fill="#010101" d="M539.779,349.557c0,0.886-0.111,1.661-0.443,2.325s-0.664,1.328-1.218,1.882
			c-0.664,0.664-1.439,1.107-2.325,1.439c-0.886,0.332-1.993,0.443-3.321,0.443h-2.546v7.085h-2.546v-18.93h5.092
			c1.107,0,2.103,0.111,2.878,0.332c0.775,0.221,1.439,0.443,2.103,0.886c0.775,0.443,1.328,1.107,1.661,1.771
			C539.557,347.565,539.779,348.45,539.779,349.557z M537.122,349.668c0-0.664-0.111-1.218-0.332-1.661
			c-0.221-0.443-0.554-0.886-0.996-1.218c-0.443-0.221-0.886-0.443-1.439-0.553c-0.554-0.111-1.218-0.221-1.993-0.221h-2.546v7.528
			h2.103c0.996,0,1.882-0.111,2.435-0.221c0.664-0.221,1.107-0.443,1.55-0.886c0.443-0.443,0.664-0.886,0.886-1.328
			C537.011,350.664,537.122,350.221,537.122,349.668z"/>
	</g>
</g>
</svg>
