<?xml version="1.0" encoding="utf-8"?>
<!-- Generator: Adobe Illustrator 18.1.0, SVG Export Plug-In . SVG Version: 6.00 Build 0)  -->
<svg version="1.1" id="Layer_1" xmlns="http://www.w3.org/2000/svg" xmlns:xlink="http://www.w3.org/1999/xlink" x="0px" y="0px"
	 viewBox="0 0 60 60" enable-background="new 0 0 60 60" xml:space="preserve">
<g>
	<g>
		<path d="M19.8,21.2c-1.2,0-2.2,1-2.2,2.2c0,1.2,1,2.2,2.2,2.2c1.2,0,2.2-1,2.2-2.2C21.9,22.2,20.9,21.2,19.8,21.2z M34.9,37.4
			c-1.2,0-2.2,1-2.2,2.2s1,2.2,2.2,2.2s2.2-1,2.2-2.2C37,38.4,36,37.4,34.9,37.4z M18.8,33.1c-1.2,0-2.2,1-2.2,2.2
			c0,1.2,1,2.2,2.2,2.2c1.2,0,2.2-1,2.2-2.2C20.8,34,19.8,33.1,18.8,33.1z M33.8,27.7c0-1.2-1-2.2-2.2-2.2c-1.2,0-2.2,1-2.2,2.2
			s1,2.2,2.2,2.2C32.8,29.8,33.8,28.9,33.8,27.7z M40.3,20.1c-1.2,0-2.2,1-2.2,2.2c0,1.2,1,2.2,2.2,2.2s2.2-1,2.2-2.2
			C42.4,21.1,41.4,20.1,40.3,20.1z M29.5,44.9c-1.2,0-2.2,1-2.2,2.2s1,2.2,2.2,2.2c1.2,0,2.2-1,2.2-2.2
			C31.6,45.9,30.6,44.9,29.5,44.9z M49.1,16.6c-4-4.6-10.9-7.2-19.1-7.2c-8.1,0-15,2.6-19,7.1c-3.3,3.8-4.5,8.7-3.8,14.8
			C9.3,46.1,22.9,59.3,30,59.3s20.4-12.8,22.8-28C53.6,25.3,52.4,20.4,49.1,16.6z M50.6,30.9C48.3,45.8,35.6,57,30,57
			c-5.1,0-18.6-11-20.6-26.1c-0.8-5.4,0.3-9.7,3.2-13.1c3.6-4.1,9.8-6.4,17.4-6.4s13.9,2.4,17.5,6.5C50.3,21.3,51.3,25.6,50.6,30.9z
			 M29.1,8.4C29.1,8.4,29.2,8.4,29.1,8.4l1.2-1.1c1.7-1.4,5.4-3.8,10.6-4.4l-0.2-2.2c-5.5,0.6-9.4,3.1-11.4,4.7
			c-2.1-1.5-6-4-11.5-4.6L17.5,3c5.2,0.6,8.8,3,10.7,4.4L29.1,8.4z"/>
	</g>
</g>
</svg>
