<?xml version="1.0" encoding="utf-8"?>
<!-- Generator: Adobe Illustrator 18.1.0, SVG Export Plug-In . SVG Version: 6.00 Build 0)  -->
<svg version="1.1" id="Layer_1" xmlns="http://www.w3.org/2000/svg" xmlns:xlink="http://www.w3.org/1999/xlink" x="0px" y="0px"
	 viewBox="0 0 1280 800" enable-background="new 0 0 1280 800" xml:space="preserve">
<rect x="-2.8" y="696" fill="#FFCC9C" width="1286.2" height="233.5"/>
<g opacity="0.2">
	<polygon fill="#FFCC9C" points="1532.1,1102.8 -199.9,1102.8 16.6,696 1279.6,696 	"/>
	<polygon fill="#BD6643" points="-137,1102.8 -199.9,1102.8 16.6,696 62.5,696 	"/>
	<polygon fill="#BD6643" points="-20.9,1102.8 -83.7,1102.8 101.3,696 147.2,696 	"/>
	<polygon fill="#BD6643" points="95.3,1102.8 32.4,1102.8 186,696 231.8,696 	"/>
	<polygon fill="#BD6643" points="211.4,1102.8 148.5,1102.8 270.7,696 316.5,696 	"/>
	<polygon fill="#BD6643" points="327.5,1102.8 264.6,1102.8 355.3,696 401.2,696 	"/>
	<polygon fill="#BD6643" points="443.6,1102.8 380.8,1102.8 440,696 485.9,696 	"/>
	<polygon fill="#BD6643" points="559.8,1102.8 496.9,1102.8 524.7,696 570.5,696 	"/>
	<polygon fill="#BD6643" points="675.9,1102.8 613,1102.8 609.4,696 655.2,696 	"/>
	<polygon fill="#BD6643" points="792,1102.8 729.1,1102.8 694,696 739.9,696 	"/>
	<polygon fill="#BD6643" points="908.1,1102.8 845.3,1102.8 778.7,696 824.6,696 	"/>
	<polygon fill="#BD6643" points="1024.3,1102.8 961.4,1102.8 863.4,696 909.2,696 	"/>
	<polygon fill="#BD6643" points="1140.4,1102.8 1077.5,1102.8 948.1,696 993.9,696 	"/>
	<polygon fill="#BD6643" points="1256.5,1102.8 1193.6,1102.8 1032.7,696 1078.6,696 	"/>
	<polygon fill="#BD6643" points="1372.6,1102.8 1309.8,1102.8 1117.4,696 1163.3,696 	"/>
	<polygon fill="#BD6643" points="1488.8,1102.8 1425.9,1102.8 1202.1,696 1247.9,696 	"/>
</g>
<ellipse opacity="0.2" cx="294" cy="733.9" rx="191.6" ry="3.9"/>
<ellipse opacity="0.2" cx="918.6" cy="740" rx="266.3" ry="3.9"/>
<g>
	<rect x="-2.8" y="97.7" fill="#9CD7B3" width="1286.2" height="584.6"/>
	<g opacity="0.1">
		<defs>
			<rect id="SVGID_1_" x="-2.4" y="104.4" opacity="0.1" width="1285.4" height="585"/>
		</defs>
		<clipPath id="SVGID_2_">
			<use xlink:href="#SVGID_1_"  overflow="visible"/>
		</clipPath>
		<ellipse clip-path="url(#SVGID_2_)" fill="#FFFFFF" cx="4.1" cy="108.6" rx="13.1" ry="10"/>
		<ellipse clip-path="url(#SVGID_2_)" fill="#FFFFFF" cx="99" cy="108.6" rx="13.1" ry="10"/>
		<ellipse clip-path="url(#SVGID_2_)" fill="#FFFFFF" cx="193.9" cy="108.6" rx="13.1" ry="10"/>
		<path clip-path="url(#SVGID_2_)" fill="#FFFFFF" d="M301.8,108.6c0,5.5-5.9,10-13.1,10c-7.2,0-13.1-4.5-13.1-10s5.9-10,13.1-10
			C296,98.6,301.8,103,301.8,108.6z"/>
		<path clip-path="url(#SVGID_2_)" fill="#FFFFFF" d="M396.7,108.6c0,5.5-5.9,10-13.1,10c-7.2,0-13.1-4.5-13.1-10s5.9-10,13.1-10
			C390.8,98.6,396.7,103,396.7,108.6z"/>
		<ellipse clip-path="url(#SVGID_2_)" fill="#FFFFFF" cx="478.5" cy="108.6" rx="13.1" ry="10"/>
		<ellipse clip-path="url(#SVGID_2_)" fill="#FFFFFF" cx="573.3" cy="108.6" rx="13.1" ry="10"/>
		<ellipse clip-path="url(#SVGID_2_)" fill="#FFFFFF" cx="668.2" cy="108.6" rx="13.1" ry="10"/>
		<ellipse clip-path="url(#SVGID_2_)" fill="#FFFFFF" cx="763" cy="108.6" rx="13.1" ry="10"/>
		<ellipse clip-path="url(#SVGID_2_)" fill="#FFFFFF" cx="857.9" cy="108.6" rx="13.1" ry="10"/>
		<ellipse clip-path="url(#SVGID_2_)" fill="#FFFFFF" cx="952.8" cy="108.6" rx="13.1" ry="10"/>
		<ellipse clip-path="url(#SVGID_2_)" fill="#FFFFFF" cx="1047.6" cy="108.6" rx="13.1" ry="10"/>
		<ellipse clip-path="url(#SVGID_2_)" fill="#FFFFFF" cx="1142.5" cy="108.6" rx="13.1" ry="10"/>
		<path clip-path="url(#SVGID_2_)" fill="#FFFFFF" d="M1250.5,108.6c0,5.5-5.9,10-13.1,10c-7.2,0-13.1-4.5-13.1-10s5.9-10,13.1-10
			C1244.6,98.6,1250.5,103,1250.5,108.6z"/>
		<ellipse clip-path="url(#SVGID_2_)" fill="#FFFFFF" cx="51.6" cy="152.7" rx="13.1" ry="10"/>
		<ellipse clip-path="url(#SVGID_2_)" fill="#FFFFFF" cx="146.4" cy="152.7" rx="13.1" ry="10"/>
		<ellipse clip-path="url(#SVGID_2_)" fill="#FFFFFF" cx="241.3" cy="152.7" rx="13.1" ry="10"/>
		<path clip-path="url(#SVGID_2_)" fill="#FFFFFF" d="M349.3,152.7c0,5.5-5.9,10-13.1,10c-7.2,0-13.1-4.5-13.1-10
			c0-5.5,5.9-10,13.1-10C343.4,142.7,349.3,147.2,349.3,152.7z"/>
		<ellipse clip-path="url(#SVGID_2_)" fill="#FFFFFF" cx="431" cy="152.7" rx="13.1" ry="10"/>
		<path clip-path="url(#SVGID_2_)" fill="#FFFFFF" d="M539,152.7c0,5.5-5.9,10-13.1,10c-7.2,0-13.1-4.5-13.1-10
			c0-5.5,5.9-10,13.1-10C533.1,142.7,539,147.2,539,152.7z"/>
		<ellipse clip-path="url(#SVGID_2_)" fill="#FFFFFF" cx="620.7" cy="152.7" rx="13.1" ry="10"/>
		<path clip-path="url(#SVGID_2_)" fill="#FFFFFF" d="M728.7,152.7c0,5.5-5.9,10-13.1,10c-7.2,0-13.1-4.5-13.1-10
			c0-5.5,5.9-10,13.1-10C722.8,142.7,728.7,147.2,728.7,152.7z"/>
		<path clip-path="url(#SVGID_2_)" fill="#FFFFFF" d="M823.6,152.7c0,5.5-5.9,10-13.1,10c-7.2,0-13.1-4.5-13.1-10
			c0-5.5,5.9-10,13.1-10C817.7,142.7,823.6,147.2,823.6,152.7z"/>
		<ellipse clip-path="url(#SVGID_2_)" fill="#FFFFFF" cx="905.3" cy="152.7" rx="13.1" ry="10"/>
		<ellipse clip-path="url(#SVGID_2_)" fill="#FFFFFF" cx="1000.2" cy="152.7" rx="13.1" ry="10"/>
		<ellipse clip-path="url(#SVGID_2_)" fill="#FFFFFF" cx="1095" cy="152.7" rx="13.1" ry="10"/>
		<ellipse clip-path="url(#SVGID_2_)" fill="#FFFFFF" cx="1189.9" cy="152.7" rx="13.1" ry="10"/>
		<ellipse clip-path="url(#SVGID_2_)" fill="#FFFFFF" cx="1284.8" cy="152.7" rx="13.1" ry="10"/>
		<ellipse clip-path="url(#SVGID_2_)" fill="#FFFFFF" cx="4.1" cy="201.8" rx="13.1" ry="10"/>
		<ellipse clip-path="url(#SVGID_2_)" fill="#FFFFFF" cx="99" cy="201.8" rx="13.1" ry="10"/>
		<ellipse clip-path="url(#SVGID_2_)" fill="#FFFFFF" cx="193.9" cy="201.8" rx="13.1" ry="10"/>
		<path clip-path="url(#SVGID_2_)" fill="#FFFFFF" d="M301.8,201.8c0,5.5-5.9,10-13.1,10c-7.2,0-13.1-4.5-13.1-10s5.9-10,13.1-10
			C296,191.8,301.8,196.3,301.8,201.8z"/>
		<path clip-path="url(#SVGID_2_)" fill="#FFFFFF" d="M396.7,201.8c0,5.5-5.9,10-13.1,10c-7.2,0-13.1-4.5-13.1-10s5.9-10,13.1-10
			C390.8,191.8,396.7,196.3,396.7,201.8z"/>
		<ellipse clip-path="url(#SVGID_2_)" fill="#FFFFFF" cx="478.5" cy="201.8" rx="13.1" ry="10"/>
		<ellipse clip-path="url(#SVGID_2_)" fill="#FFFFFF" cx="573.3" cy="201.8" rx="13.1" ry="10"/>
		<path clip-path="url(#SVGID_2_)" fill="#FFFFFF" d="M681.3,201.8c0,5.5-5.9,10-13.1,10c-7.2,0-13.1-4.5-13.1-10s5.9-10,13.1-10
			C675.4,191.8,681.3,196.3,681.3,201.8z"/>
		<ellipse clip-path="url(#SVGID_2_)" fill="#FFFFFF" cx="763" cy="201.8" rx="13.1" ry="10"/>
		<ellipse clip-path="url(#SVGID_2_)" fill="#FFFFFF" cx="857.9" cy="201.8" rx="13.1" ry="10"/>
		<path clip-path="url(#SVGID_2_)" fill="#FFFFFF" d="M965.9,201.8c0,5.5-5.9,10-13.1,10c-7.2,0-13.1-4.5-13.1-10s5.9-10,13.1-10
			C960,191.8,965.9,196.3,965.9,201.8z"/>
		<ellipse clip-path="url(#SVGID_2_)" fill="#FFFFFF" cx="1047.6" cy="201.8" rx="13.1" ry="10"/>
		<ellipse clip-path="url(#SVGID_2_)" fill="#FFFFFF" cx="1142.5" cy="201.8" rx="13.1" ry="10"/>
		<path clip-path="url(#SVGID_2_)" fill="#FFFFFF" d="M1250.5,201.8c0,5.5-5.9,10-13.1,10c-7.2,0-13.1-4.5-13.1-10s5.9-10,13.1-10
			C1244.6,191.8,1250.5,196.3,1250.5,201.8z"/>
		<ellipse clip-path="url(#SVGID_2_)" fill="#FFFFFF" cx="51.6" cy="246" rx="13.1" ry="10"/>
		<ellipse clip-path="url(#SVGID_2_)" fill="#FFFFFF" cx="146.4" cy="246" rx="13.1" ry="10"/>
		<ellipse clip-path="url(#SVGID_2_)" fill="#FFFFFF" cx="241.3" cy="246" rx="13.1" ry="10"/>
		<path clip-path="url(#SVGID_2_)" fill="#FFFFFF" d="M349.3,246c0,5.5-5.9,10-13.1,10c-7.2,0-13.1-4.5-13.1-10
			c0-5.5,5.9-10,13.1-10C343.4,236,349.3,240.5,349.3,246z"/>
		<ellipse clip-path="url(#SVGID_2_)" fill="#FFFFFF" cx="431" cy="246" rx="13.1" ry="10"/>
		<path clip-path="url(#SVGID_2_)" fill="#FFFFFF" d="M539,246c0,5.5-5.9,10-13.1,10c-7.2,0-13.1-4.5-13.1-10c0-5.5,5.9-10,13.1-10
			C533.1,236,539,240.5,539,246z"/>
		<ellipse clip-path="url(#SVGID_2_)" fill="#FFFFFF" cx="620.7" cy="246" rx="13.1" ry="10"/>
		<path clip-path="url(#SVGID_2_)" fill="#FFFFFF" d="M728.7,246c0,5.5-5.9,10-13.1,10c-7.2,0-13.1-4.5-13.1-10
			c0-5.5,5.9-10,13.1-10C722.8,236,728.7,240.5,728.7,246z"/>
		<path clip-path="url(#SVGID_2_)" fill="#FFFFFF" d="M823.6,246c0,5.5-5.9,10-13.1,10c-7.2,0-13.1-4.5-13.1-10
			c0-5.5,5.9-10,13.1-10C817.7,236,823.6,240.5,823.6,246z"/>
		<ellipse clip-path="url(#SVGID_2_)" fill="#FFFFFF" cx="905.3" cy="246" rx="13.1" ry="10"/>
		<ellipse clip-path="url(#SVGID_2_)" fill="#FFFFFF" cx="1000.2" cy="246" rx="13.1" ry="10"/>
		<ellipse clip-path="url(#SVGID_2_)" fill="#FFFFFF" cx="1095" cy="246" rx="13.1" ry="10"/>
		<ellipse clip-path="url(#SVGID_2_)" fill="#FFFFFF" cx="1189.9" cy="246" rx="13.1" ry="10"/>
		<ellipse clip-path="url(#SVGID_2_)" fill="#FFFFFF" cx="1284.8" cy="246" rx="13.1" ry="10"/>
		<ellipse clip-path="url(#SVGID_2_)" fill="#FFFFFF" cx="4.1" cy="295.1" rx="13.1" ry="10"/>
		<ellipse clip-path="url(#SVGID_2_)" fill="#FFFFFF" cx="99" cy="295.1" rx="13.1" ry="10"/>
		<ellipse clip-path="url(#SVGID_2_)" fill="#FFFFFF" cx="193.9" cy="295.1" rx="13.1" ry="10"/>
		<path clip-path="url(#SVGID_2_)" fill="#FFFFFF" d="M301.8,295.1c0,5.5-5.9,10-13.1,10c-7.2,0-13.1-4.5-13.1-10s5.9-10,13.1-10
			C296,285.1,301.8,289.6,301.8,295.1z"/>
		<path clip-path="url(#SVGID_2_)" fill="#FFFFFF" d="M396.7,295.1c0,5.5-5.9,10-13.1,10c-7.2,0-13.1-4.5-13.1-10s5.9-10,13.1-10
			C390.8,285.1,396.7,289.6,396.7,295.1z"/>
		<ellipse clip-path="url(#SVGID_2_)" fill="#FFFFFF" cx="478.5" cy="295.1" rx="13.1" ry="10"/>
		<ellipse clip-path="url(#SVGID_2_)" fill="#FFFFFF" cx="573.3" cy="295.1" rx="13.1" ry="10"/>
		<path clip-path="url(#SVGID_2_)" fill="#FFFFFF" d="M681.3,295.1c0,5.5-5.9,10-13.1,10c-7.2,0-13.1-4.5-13.1-10s5.9-10,13.1-10
			C675.4,285.1,681.3,289.6,681.3,295.1z"/>
		<ellipse clip-path="url(#SVGID_2_)" fill="#FFFFFF" cx="763" cy="295.1" rx="13.1" ry="10"/>
		<ellipse clip-path="url(#SVGID_2_)" fill="#FFFFFF" cx="857.9" cy="295.1" rx="13.1" ry="10"/>
		<path clip-path="url(#SVGID_2_)" fill="#FFFFFF" d="M965.9,295.1c0,5.5-5.9,10-13.1,10c-7.2,0-13.1-4.5-13.1-10s5.9-10,13.1-10
			C960,285.1,965.9,289.6,965.9,295.1z"/>
		<ellipse clip-path="url(#SVGID_2_)" fill="#FFFFFF" cx="1047.6" cy="295.1" rx="13.1" ry="10"/>
		<ellipse clip-path="url(#SVGID_2_)" fill="#FFFFFF" cx="1142.5" cy="295.1" rx="13.1" ry="10"/>
		<path clip-path="url(#SVGID_2_)" fill="#FFFFFF" d="M1250.5,295.1c0,5.5-5.9,10-13.1,10c-7.2,0-13.1-4.5-13.1-10s5.9-10,13.1-10
			C1244.6,285.1,1250.5,289.6,1250.5,295.1z"/>
		<ellipse clip-path="url(#SVGID_2_)" fill="#FFFFFF" cx="51.6" cy="339.2" rx="13.1" ry="10"/>
		<ellipse clip-path="url(#SVGID_2_)" fill="#FFFFFF" cx="146.4" cy="339.2" rx="13.1" ry="10"/>
		<ellipse clip-path="url(#SVGID_2_)" fill="#FFFFFF" cx="241.3" cy="339.2" rx="13.1" ry="10"/>
		<path clip-path="url(#SVGID_2_)" fill="#FFFFFF" d="M349.3,339.2c0,5.5-5.9,10-13.1,10c-7.2,0-13.1-4.5-13.1-10
			c0-5.5,5.9-10,13.1-10C343.4,329.3,349.3,333.7,349.3,339.2z"/>
		<ellipse clip-path="url(#SVGID_2_)" fill="#FFFFFF" cx="431" cy="339.2" rx="13.1" ry="10"/>
		<path clip-path="url(#SVGID_2_)" fill="#FFFFFF" d="M539,339.2c0,5.5-5.9,10-13.1,10c-7.2,0-13.1-4.5-13.1-10
			c0-5.5,5.9-10,13.1-10C533.1,329.3,539,333.7,539,339.2z"/>
		<ellipse clip-path="url(#SVGID_2_)" fill="#FFFFFF" cx="620.7" cy="339.2" rx="13.1" ry="10"/>
		<path clip-path="url(#SVGID_2_)" fill="#FFFFFF" d="M728.7,339.2c0,5.5-5.9,10-13.1,10c-7.2,0-13.1-4.5-13.1-10
			c0-5.5,5.9-10,13.1-10C722.8,329.3,728.7,333.7,728.7,339.2z"/>
		<path clip-path="url(#SVGID_2_)" fill="#FFFFFF" d="M823.6,339.2c0,5.5-5.9,10-13.1,10c-7.2,0-13.1-4.5-13.1-10
			c0-5.5,5.9-10,13.1-10C817.7,329.3,823.6,333.7,823.6,339.2z"/>
		<ellipse clip-path="url(#SVGID_2_)" fill="#FFFFFF" cx="905.3" cy="339.2" rx="13.1" ry="10"/>
		<ellipse clip-path="url(#SVGID_2_)" fill="#FFFFFF" cx="1000.2" cy="339.2" rx="13.1" ry="10"/>
		<ellipse clip-path="url(#SVGID_2_)" fill="#FFFFFF" cx="1095" cy="339.2" rx="13.1" ry="10"/>
		<ellipse clip-path="url(#SVGID_2_)" fill="#FFFFFF" cx="1189.9" cy="339.2" rx="13.1" ry="10"/>
		<ellipse clip-path="url(#SVGID_2_)" fill="#FFFFFF" cx="1284.8" cy="339.2" rx="13.1" ry="10"/>
		<ellipse clip-path="url(#SVGID_2_)" fill="#FFFFFF" cx="4.1" cy="388.4" rx="13.1" ry="10"/>
		<ellipse clip-path="url(#SVGID_2_)" fill="#FFFFFF" cx="99" cy="388.4" rx="13.1" ry="10"/>
		<ellipse clip-path="url(#SVGID_2_)" fill="#FFFFFF" cx="193.9" cy="388.4" rx="13.1" ry="10"/>
		<path clip-path="url(#SVGID_2_)" fill="#FFFFFF" d="M301.8,388.4c0,5.5-5.9,10-13.1,10c-7.2,0-13.1-4.5-13.1-10
			c0-5.5,5.9-10,13.1-10C296,378.4,301.8,382.9,301.8,388.4z"/>
		<path clip-path="url(#SVGID_2_)" fill="#FFFFFF" d="M396.7,388.4c0,5.5-5.9,10-13.1,10c-7.2,0-13.1-4.5-13.1-10
			c0-5.5,5.9-10,13.1-10C390.8,378.4,396.7,382.9,396.7,388.4z"/>
		<ellipse clip-path="url(#SVGID_2_)" fill="#FFFFFF" cx="478.5" cy="388.4" rx="13.1" ry="10"/>
		<ellipse clip-path="url(#SVGID_2_)" fill="#FFFFFF" cx="573.3" cy="388.4" rx="13.1" ry="10"/>
		<ellipse clip-path="url(#SVGID_2_)" fill="#FFFFFF" cx="668.2" cy="388.4" rx="13.1" ry="10"/>
		<ellipse clip-path="url(#SVGID_2_)" fill="#FFFFFF" cx="763" cy="388.4" rx="13.1" ry="10"/>
		<ellipse clip-path="url(#SVGID_2_)" fill="#FFFFFF" cx="857.9" cy="388.4" rx="13.1" ry="10"/>
		<ellipse clip-path="url(#SVGID_2_)" fill="#FFFFFF" cx="952.8" cy="388.4" rx="13.1" ry="10"/>
		<ellipse clip-path="url(#SVGID_2_)" fill="#FFFFFF" cx="1047.6" cy="388.4" rx="13.1" ry="10"/>
		<ellipse clip-path="url(#SVGID_2_)" fill="#FFFFFF" cx="1142.5" cy="388.4" rx="13.1" ry="10"/>
		<path clip-path="url(#SVGID_2_)" fill="#FFFFFF" d="M1250.5,388.4c0,5.5-5.9,10-13.1,10c-7.2,0-13.1-4.5-13.1-10
			c0-5.5,5.9-10,13.1-10C1244.6,378.4,1250.5,382.9,1250.5,388.4z"/>
		<ellipse clip-path="url(#SVGID_2_)" fill="#FFFFFF" cx="51.6" cy="432.5" rx="13.1" ry="10"/>
		<ellipse clip-path="url(#SVGID_2_)" fill="#FFFFFF" cx="146.4" cy="432.5" rx="13.1" ry="10"/>
		<ellipse clip-path="url(#SVGID_2_)" fill="#FFFFFF" cx="241.3" cy="432.5" rx="13.1" ry="10"/>
		<path clip-path="url(#SVGID_2_)" fill="#FFFFFF" d="M349.3,432.5c0,5.5-5.9,10-13.1,10c-7.2,0-13.1-4.5-13.1-10
			c0-5.5,5.9-10,13.1-10C343.4,422.5,349.3,427,349.3,432.5z"/>
		<ellipse clip-path="url(#SVGID_2_)" fill="#FFFFFF" cx="431" cy="432.5" rx="13.1" ry="10"/>
		<path clip-path="url(#SVGID_2_)" fill="#FFFFFF" d="M539,432.5c0,5.5-5.9,10-13.1,10c-7.2,0-13.1-4.5-13.1-10
			c0-5.5,5.9-10,13.1-10C533.1,422.5,539,427,539,432.5z"/>
		<ellipse clip-path="url(#SVGID_2_)" fill="#FFFFFF" cx="620.7" cy="432.5" rx="13.1" ry="10"/>
		<path clip-path="url(#SVGID_2_)" fill="#FFFFFF" d="M728.7,432.5c0,5.5-5.9,10-13.1,10c-7.2,0-13.1-4.5-13.1-10
			c0-5.5,5.9-10,13.1-10C722.8,422.5,728.7,427,728.7,432.5z"/>
		<path clip-path="url(#SVGID_2_)" fill="#FFFFFF" d="M823.6,432.5c0,5.5-5.9,10-13.1,10c-7.2,0-13.1-4.5-13.1-10
			c0-5.5,5.9-10,13.1-10C817.7,422.5,823.6,427,823.6,432.5z"/>
		<ellipse clip-path="url(#SVGID_2_)" fill="#FFFFFF" cx="905.3" cy="432.5" rx="13.1" ry="10"/>
		<ellipse clip-path="url(#SVGID_2_)" fill="#FFFFFF" cx="1000.2" cy="432.5" rx="13.1" ry="10"/>
		<ellipse clip-path="url(#SVGID_2_)" fill="#FFFFFF" cx="1095" cy="432.5" rx="13.1" ry="10"/>
		<ellipse clip-path="url(#SVGID_2_)" fill="#FFFFFF" cx="1189.9" cy="432.5" rx="13.1" ry="10"/>
		<ellipse clip-path="url(#SVGID_2_)" fill="#FFFFFF" cx="1284.8" cy="432.5" rx="13.1" ry="10"/>
		<ellipse clip-path="url(#SVGID_2_)" fill="#FFFFFF" cx="4.1" cy="481.6" rx="13.1" ry="10"/>
		<ellipse clip-path="url(#SVGID_2_)" fill="#FFFFFF" cx="99" cy="481.6" rx="13.1" ry="10"/>
		<ellipse clip-path="url(#SVGID_2_)" fill="#FFFFFF" cx="193.9" cy="481.6" rx="13.1" ry="10"/>
		<path clip-path="url(#SVGID_2_)" fill="#FFFFFF" d="M301.8,481.6c0,5.5-5.9,10-13.1,10c-7.2,0-13.1-4.5-13.1-10
			c0-5.5,5.9-10,13.1-10C296,471.7,301.8,476.1,301.8,481.6z"/>
		<path clip-path="url(#SVGID_2_)" fill="#FFFFFF" d="M396.7,481.6c0,5.5-5.9,10-13.1,10c-7.2,0-13.1-4.5-13.1-10
			c0-5.5,5.9-10,13.1-10C390.8,471.7,396.7,476.1,396.7,481.6z"/>
		<ellipse clip-path="url(#SVGID_2_)" fill="#FFFFFF" cx="478.5" cy="481.6" rx="13.1" ry="10"/>
		<ellipse clip-path="url(#SVGID_2_)" fill="#FFFFFF" cx="573.3" cy="481.6" rx="13.1" ry="10"/>
		<path clip-path="url(#SVGID_2_)" fill="#FFFFFF" d="M681.3,481.6c0,5.5-5.9,10-13.1,10c-7.2,0-13.1-4.5-13.1-10
			c0-5.5,5.9-10,13.1-10C675.4,471.7,681.3,476.1,681.3,481.6z"/>
		<ellipse clip-path="url(#SVGID_2_)" fill="#FFFFFF" cx="763" cy="481.6" rx="13.1" ry="10"/>
		<ellipse clip-path="url(#SVGID_2_)" fill="#FFFFFF" cx="857.9" cy="481.6" rx="13.1" ry="10"/>
		<path clip-path="url(#SVGID_2_)" fill="#FFFFFF" d="M965.9,481.6c0,5.5-5.9,10-13.1,10c-7.2,0-13.1-4.5-13.1-10
			c0-5.5,5.9-10,13.1-10C960,471.7,965.9,476.1,965.9,481.6z"/>
		<ellipse clip-path="url(#SVGID_2_)" fill="#FFFFFF" cx="1047.6" cy="481.6" rx="13.1" ry="10"/>
		<ellipse clip-path="url(#SVGID_2_)" fill="#FFFFFF" cx="1142.5" cy="481.6" rx="13.1" ry="10"/>
		<path clip-path="url(#SVGID_2_)" fill="#FFFFFF" d="M1250.5,481.6c0,5.5-5.9,10-13.1,10c-7.2,0-13.1-4.5-13.1-10
			c0-5.5,5.9-10,13.1-10C1244.6,471.7,1250.5,476.1,1250.5,481.6z"/>
		<ellipse clip-path="url(#SVGID_2_)" fill="#FFFFFF" cx="51.6" cy="525.8" rx="13.1" ry="10"/>
		<ellipse clip-path="url(#SVGID_2_)" fill="#FFFFFF" cx="146.4" cy="525.8" rx="13.1" ry="10"/>
		<ellipse clip-path="url(#SVGID_2_)" fill="#FFFFFF" cx="241.3" cy="525.8" rx="13.1" ry="10"/>
		<path clip-path="url(#SVGID_2_)" fill="#FFFFFF" d="M349.3,525.8c0,5.5-5.9,10-13.1,10c-7.2,0-13.1-4.5-13.1-10
			c0-5.5,5.9-10,13.1-10C343.4,515.8,349.3,520.3,349.3,525.8z"/>
		<ellipse clip-path="url(#SVGID_2_)" fill="#FFFFFF" cx="431" cy="525.8" rx="13.1" ry="10"/>
		<path clip-path="url(#SVGID_2_)" fill="#FFFFFF" d="M539,525.8c0,5.5-5.9,10-13.1,10c-7.2,0-13.1-4.5-13.1-10
			c0-5.5,5.9-10,13.1-10C533.1,515.8,539,520.3,539,525.8z"/>
		<ellipse clip-path="url(#SVGID_2_)" fill="#FFFFFF" cx="620.7" cy="525.8" rx="13.1" ry="10"/>
		<path clip-path="url(#SVGID_2_)" fill="#FFFFFF" d="M728.7,525.8c0,5.5-5.9,10-13.1,10c-7.2,0-13.1-4.5-13.1-10
			c0-5.5,5.9-10,13.1-10C722.8,515.8,728.7,520.3,728.7,525.8z"/>
		<path clip-path="url(#SVGID_2_)" fill="#FFFFFF" d="M823.6,525.8c0,5.5-5.9,10-13.1,10c-7.2,0-13.1-4.5-13.1-10
			c0-5.5,5.9-10,13.1-10C817.7,515.8,823.6,520.3,823.6,525.8z"/>
		<ellipse clip-path="url(#SVGID_2_)" fill="#FFFFFF" cx="905.3" cy="525.8" rx="13.1" ry="10"/>
		<ellipse clip-path="url(#SVGID_2_)" fill="#FFFFFF" cx="1000.2" cy="525.8" rx="13.1" ry="10"/>
		<ellipse clip-path="url(#SVGID_2_)" fill="#FFFFFF" cx="1095" cy="525.8" rx="13.1" ry="10"/>
		<ellipse clip-path="url(#SVGID_2_)" fill="#FFFFFF" cx="1189.9" cy="525.8" rx="13.1" ry="10"/>
		<ellipse clip-path="url(#SVGID_2_)" fill="#FFFFFF" cx="1284.8" cy="525.8" rx="13.1" ry="10"/>
		<ellipse clip-path="url(#SVGID_2_)" fill="#FFFFFF" cx="4.1" cy="574.9" rx="13.1" ry="10"/>
		<path clip-path="url(#SVGID_2_)" fill="#FFFFFF" d="M112.1,574.9c0,5.5-5.9,10-13.1,10c-7.2,0-13.1-4.5-13.1-10
			c0-5.5,5.9-10,13.1-10C106.3,564.9,112.1,569.4,112.1,574.9z"/>
		<ellipse clip-path="url(#SVGID_2_)" fill="#FFFFFF" cx="193.9" cy="574.9" rx="13.1" ry="10"/>
		<path clip-path="url(#SVGID_2_)" fill="#FFFFFF" d="M301.8,574.9c0,5.5-5.9,10-13.1,10c-7.2,0-13.1-4.5-13.1-10
			c0-5.5,5.9-10,13.1-10C296,564.9,301.8,569.4,301.8,574.9z"/>
		<path clip-path="url(#SVGID_2_)" fill="#FFFFFF" d="M396.7,574.9c0,5.5-5.9,10-13.1,10c-7.2,0-13.1-4.5-13.1-10
			c0-5.5,5.9-10,13.1-10C390.8,564.9,396.7,569.4,396.7,574.9z"/>
		<ellipse clip-path="url(#SVGID_2_)" fill="#FFFFFF" cx="478.5" cy="574.9" rx="13.1" ry="10"/>
		<ellipse clip-path="url(#SVGID_2_)" fill="#FFFFFF" cx="573.3" cy="574.9" rx="13.1" ry="10"/>
		<path clip-path="url(#SVGID_2_)" fill="#FFFFFF" d="M681.3,574.9c0,5.5-5.9,10-13.1,10c-7.2,0-13.1-4.5-13.1-10
			c0-5.5,5.9-10,13.1-10C675.4,564.9,681.3,569.4,681.3,574.9z"/>
		<ellipse clip-path="url(#SVGID_2_)" fill="#FFFFFF" cx="763" cy="574.9" rx="13.1" ry="10"/>
		<ellipse clip-path="url(#SVGID_2_)" fill="#FFFFFF" cx="857.9" cy="574.9" rx="13.1" ry="10"/>
		<path clip-path="url(#SVGID_2_)" fill="#FFFFFF" d="M965.9,574.9c0,5.5-5.9,10-13.1,10c-7.2,0-13.1-4.5-13.1-10
			c0-5.5,5.9-10,13.1-10C960,564.9,965.9,569.4,965.9,574.9z"/>
		<ellipse clip-path="url(#SVGID_2_)" fill="#FFFFFF" cx="1047.6" cy="574.9" rx="13.1" ry="10"/>
		<ellipse clip-path="url(#SVGID_2_)" fill="#FFFFFF" cx="1142.5" cy="574.9" rx="13.1" ry="10"/>
		<path clip-path="url(#SVGID_2_)" fill="#FFFFFF" d="M1250.5,574.9c0,5.5-5.9,10-13.1,10c-7.2,0-13.1-4.5-13.1-10
			c0-5.5,5.9-10,13.1-10C1244.6,564.9,1250.5,569.4,1250.5,574.9z"/>
		<ellipse clip-path="url(#SVGID_2_)" fill="#FFFFFF" cx="51.6" cy="619.1" rx="13.1" ry="10"/>
		<ellipse clip-path="url(#SVGID_2_)" fill="#FFFFFF" cx="146.4" cy="619.1" rx="13.1" ry="10"/>
		<ellipse clip-path="url(#SVGID_2_)" fill="#FFFFFF" cx="241.3" cy="619.1" rx="13.1" ry="10"/>
		<path clip-path="url(#SVGID_2_)" fill="#FFFFFF" d="M349.3,619.1c0,5.5-5.9,10-13.1,10c-7.2,0-13.1-4.5-13.1-10
			c0-5.5,5.9-10,13.1-10C343.4,609.1,349.3,613.5,349.3,619.1z"/>
		<ellipse clip-path="url(#SVGID_2_)" fill="#FFFFFF" cx="431" cy="619.1" rx="13.1" ry="10"/>
		<path clip-path="url(#SVGID_2_)" fill="#FFFFFF" d="M539,619.1c0,5.5-5.9,10-13.1,10c-7.2,0-13.1-4.5-13.1-10
			c0-5.5,5.9-10,13.1-10C533.1,609.1,539,613.5,539,619.1z"/>
		<ellipse clip-path="url(#SVGID_2_)" fill="#FFFFFF" cx="620.7" cy="619.1" rx="13.1" ry="10"/>
		<path clip-path="url(#SVGID_2_)" fill="#FFFFFF" d="M728.7,619.1c0,5.5-5.9,10-13.1,10c-7.2,0-13.1-4.5-13.1-10
			c0-5.5,5.9-10,13.1-10C722.8,609.1,728.7,613.5,728.7,619.1z"/>
		<path clip-path="url(#SVGID_2_)" fill="#FFFFFF" d="M823.6,619.1c0,5.5-5.9,10-13.1,10c-7.2,0-13.1-4.5-13.1-10
			c0-5.5,5.9-10,13.1-10C817.7,609.1,823.6,613.5,823.6,619.1z"/>
		<ellipse clip-path="url(#SVGID_2_)" fill="#FFFFFF" cx="905.3" cy="619.1" rx="13.1" ry="10"/>
		<ellipse clip-path="url(#SVGID_2_)" fill="#FFFFFF" cx="1000.2" cy="619.1" rx="13.1" ry="10"/>
		<ellipse clip-path="url(#SVGID_2_)" fill="#FFFFFF" cx="1095" cy="619.1" rx="13.1" ry="10"/>
		<ellipse clip-path="url(#SVGID_2_)" fill="#FFFFFF" cx="1189.9" cy="619.1" rx="13.1" ry="10"/>
		<ellipse clip-path="url(#SVGID_2_)" fill="#FFFFFF" cx="1284.8" cy="619.1" rx="13.1" ry="10"/>
		<ellipse clip-path="url(#SVGID_2_)" fill="#FFFFFF" cx="4.1" cy="668.2" rx="13.1" ry="10"/>
		<ellipse clip-path="url(#SVGID_2_)" fill="#FFFFFF" cx="99" cy="668.2" rx="13.1" ry="10"/>
		<ellipse clip-path="url(#SVGID_2_)" fill="#FFFFFF" cx="193.9" cy="668.2" rx="13.1" ry="10"/>
		<path clip-path="url(#SVGID_2_)" fill="#FFFFFF" d="M301.8,668.2c0,5.5-5.9,10-13.1,10c-7.2,0-13.1-4.5-13.1-10
			c0-5.5,5.9-10,13.1-10C296,658.2,301.8,662.7,301.8,668.2z"/>
		<path clip-path="url(#SVGID_2_)" fill="#FFFFFF" d="M396.7,668.2c0,5.5-5.9,10-13.1,10c-7.2,0-13.1-4.5-13.1-10
			c0-5.5,5.9-10,13.1-10C390.8,658.2,396.7,662.7,396.7,668.2z"/>
		<ellipse clip-path="url(#SVGID_2_)" fill="#FFFFFF" cx="478.5" cy="668.2" rx="13.1" ry="10"/>
		<ellipse clip-path="url(#SVGID_2_)" fill="#FFFFFF" cx="573.3" cy="668.2" rx="13.1" ry="10"/>
		<path clip-path="url(#SVGID_2_)" fill="#FFFFFF" d="M681.3,668.2c0,5.5-5.9,10-13.1,10c-7.2,0-13.1-4.5-13.1-10
			c0-5.5,5.9-10,13.1-10C675.4,658.2,681.3,662.7,681.3,668.2z"/>
		<ellipse clip-path="url(#SVGID_2_)" fill="#FFFFFF" cx="763" cy="668.2" rx="13.1" ry="10"/>
		<ellipse clip-path="url(#SVGID_2_)" fill="#FFFFFF" cx="857.9" cy="668.2" rx="13.1" ry="10"/>
		<path clip-path="url(#SVGID_2_)" fill="#FFFFFF" d="M965.9,668.2c0,5.5-5.9,10-13.1,10c-7.2,0-13.1-4.5-13.1-10
			c0-5.5,5.9-10,13.1-10C960,658.2,965.9,662.7,965.9,668.2z"/>
		<ellipse clip-path="url(#SVGID_2_)" fill="#FFFFFF" cx="1047.6" cy="668.2" rx="13.1" ry="10"/>
		<ellipse clip-path="url(#SVGID_2_)" fill="#FFFFFF" cx="1142.5" cy="668.2" rx="13.1" ry="10"/>
		<path clip-path="url(#SVGID_2_)" fill="#FFFFFF" d="M1250.5,668.2c0,5.5-5.9,10-13.1,10c-7.2,0-13.1-4.5-13.1-10
			c0-5.5,5.9-10,13.1-10C1244.6,658.2,1250.5,662.7,1250.5,668.2z"/>
	</g>
</g>
<polygon opacity="0.2" points="444.9,359.7 155.7,359.7 146.7,352.8 147.1,257.6 434.4,256.3 444.7,262.3 "/>
<linearGradient id="SVGID_3_" gradientUnits="userSpaceOnUse" x1="672.8721" y1="693.6751" x2="659.7606" y2="540.7083">
	<stop  offset="0.5744" style="stop-color:#130C0E;stop-opacity:0"/>
	<stop  offset="0.7977" style="stop-color:#130C0E;stop-opacity:0.6512"/>
	<stop  offset="1" style="stop-color:#130C0E;stop-opacity:0.95"/>
</linearGradient>
<polygon opacity="0.2" fill="url(#SVGID_3_)" points="485.6,533.9 539.7,618.7 840.2,620.3 799.3,533.9 "/>
<polygon opacity="0.2" points="830.8,482.2 843.3,495.3 1145.1,495.3 1136.9,482.2 "/>
<rect x="-2.8" y="-50.7" fill="#FFFFFF" width="1286.2" height="154.4"/>
<rect x="-2.8" y="79.3" fill="#DFEFF6" width="1286.2" height="24.4"/>
<path fill="none" d="M228.4,690.2c4.6-0.2,8.1,2.5,12.1,3.5"/>
<g>
	<polygon fill="#401D35" points="233.1,736.3 240.4,734.9 214.5,658.1 207.2,659.5 	"/>
	<polygon fill="#401D35" points="118.4,736.3 111.1,734.9 137,658.1 144.3,659.5 	"/>
	<path fill="#FFFFFF" d="M119.4,658.1c0,3.2,3.4,5.8,7.6,5.8h103.7c4.2,0,7.6-2.6,7.6-5.8l0,0c0-3.2-3.4-5.8-7.6-5.8H127
		C122.8,652.3,119.4,654.9,119.4,658.1L119.4,658.1z"/>
	<rect x="119.4" y="576.1" fill="#FFFFFF" width="15.2" height="82"/>
	<path fill="#D2004E" d="M230.7,652.3c0,0-52.1-9.5-94.9,0H230.7z"/>
</g>
<g>
	<polygon fill="#401D35" points="355.6,736.3 348.3,734.9 374.2,658.1 381.5,659.5 	"/>
	<polygon fill="#401D35" points="470.3,736.3 477.7,734.9 451.8,658.1 444.5,659.5 	"/>
	<path fill="#FFFFFF" d="M469.3,658.1c0,3.2-3.4,5.8-7.6,5.8H358c-4.2,0-7.6-2.6-7.6-5.8l0,0c0-3.2,3.4-5.8,7.6-5.8h103.7
		C465.9,652.3,469.3,654.9,469.3,658.1L469.3,658.1z"/>
	<rect x="454.1" y="576.1" fill="#FFFFFF" width="15.2" height="82"/>
	<path fill="#D2004E" d="M358,652.3c0,0,52.1-9.5,94.9,0H358z"/>
</g>
<g>
	<ellipse fill="#BD6643" cx="295" cy="610.9" rx="126.9" ry="4.5"/>
	<rect x="290.6" y="615.2" fill="#401D35" width="8.7" height="116"/>
	<ellipse fill="#401D35" cx="295" cy="731.4" rx="35.8" ry="3.9"/>
</g>
<g>
	<g>
		<rect x="995" y="43.5" fill="#401D35" width="4.7" height="250.5"/>
		<path fill="#FFFFFF" d="M1054.7,341.6c6.9-8.1,10.9-17.8,10.9-28.2c0-28.6-30.5-51.9-68.1-51.9c-37.6,0-68.1,23.2-68.1,51.9
			c0,10.4,4,20.1,10.9,28.2H1054.7z"/>
	</g>
	<ellipse fill="#9CD7B3" cx="997.6" cy="44.4" rx="25.7" ry="8.3"/>
</g>
<g>
	<g>
		<g>
			<rect x="888.5" y="28.9" fill="#401D35" width="3.3" height="177.3"/>
			<path fill="#D2004E" d="M930.8,239.8c4.9-5.7,7.7-12.6,7.7-19.9c0-20.3-21.6-36.7-48.2-36.7c-26.6,0-48.2,16.4-48.2,36.7
				c0,7.4,2.8,14.2,7.7,19.9H930.8z"/>
		</g>
		<ellipse fill="#BD6643" cx="890.4" cy="29.6" rx="18.2" ry="5.9"/>
	</g>
	<g opacity="0.7">
		<defs>
			<path id="SVGID_4_" opacity="0.7" d="M930.8,239.8c4.9-5.7,7.7-12.6,7.7-19.9c0-20.3-21.6-36.7-48.2-36.7
				c-26.6,0-48.2,16.4-48.2,36.7c0,7.4,2.8,14.2,7.7,19.9H930.8z"/>
		</defs>
		<clipPath id="SVGID_5_">
			<use xlink:href="#SVGID_4_"  overflow="visible"/>
		</clipPath>
		<rect x="811.1" y="159.6" clip-path="url(#SVGID_5_)" fill="#FFFFFF" width="170" height="3.1"/>
		<rect x="811.1" y="167.9" clip-path="url(#SVGID_5_)" fill="#FFFFFF" width="170" height="3.1"/>
		<rect x="811.1" y="176.2" clip-path="url(#SVGID_5_)" fill="#FFFFFF" width="170" height="3.1"/>
		<rect x="811.1" y="184.4" clip-path="url(#SVGID_5_)" fill="#FFFFFF" width="170" height="3.1"/>
		<rect x="811.1" y="192.7" clip-path="url(#SVGID_5_)" fill="#FFFFFF" width="170" height="3.1"/>
		<rect x="811.1" y="201" clip-path="url(#SVGID_5_)" fill="#FFFFFF" width="170" height="3.1"/>
		<rect x="811.1" y="209.3" clip-path="url(#SVGID_5_)" fill="#FFFFFF" width="170" height="3.1"/>
		<rect x="811.1" y="217.5" clip-path="url(#SVGID_5_)" fill="#FFFFFF" width="170" height="3.1"/>
		<rect x="811.1" y="225.8" clip-path="url(#SVGID_5_)" fill="#FFFFFF" width="170" height="3.1"/>
		<rect x="811.1" y="234.1" clip-path="url(#SVGID_5_)" fill="#FFFFFF" width="170" height="3.1"/>
		<rect x="811.1" y="242.3" clip-path="url(#SVGID_5_)" fill="#FFFFFF" width="170" height="3.1"/>
		<rect x="811.1" y="250.6" clip-path="url(#SVGID_5_)" fill="#FFFFFF" width="170" height="3.1"/>
		<rect x="811.1" y="258.9" clip-path="url(#SVGID_5_)" fill="#FFFFFF" width="170" height="3.1"/>
		<rect x="811.1" y="267.2" clip-path="url(#SVGID_5_)" fill="#FFFFFF" width="170" height="3.1"/>
	</g>
</g>
<rect x="485.6" y="513.4" fill="#FFFFFF" width="314" height="20.6"/>
<g>
	<g>
		<path fill="#401D35" d="M362.9,598c1.2-1.9,4.4-1.5,5.2,0.5c0.4,1.1-0.4,2.6-1.6,3.3c-1.5,0.9-3.4,0.7-4.8-0.2
			c-1.8-1.1-4.3,0.8-2.5,1.9c2.6,1.5,5.5,2,8.5,0.9c2.9-1,4.5-3.8,4.1-6.2c-0.8-4.5-9.2-6-11.9-1.7
			C358.8,598.2,361.9,599.6,362.9,598L362.9,598z"/>
	</g>
	<path fill="#E62C70" d="M363.4,591.9h-17.2H329c0,0-0.5,14.4,11.7,18.2l5.5,0.1l5.5-0.1C363.9,606.2,363.4,591.9,363.4,591.9z"/>
	<path fill="#FFFFFF" d="M346.1,590.1c1.4-1,3.1-2.1,3-3.6c0-1.5-1.6-3-3.3-3.7c-1.8-0.8-3.7-1.1-4.7-2.6c-1.1-1.6-0.4-2.8,1.3-3.9
		c2.2-1.5,4.5-3.1,7.1-4.2c-1.4,1.4-3.5,3.1-3.5,5c0,1.9,2.4,3,4.2,4c3.8,2.2,4.6,6.1-0.2,8c-1.3,0.5-2.6,0.8-3.9,1.3"/>
</g>
<g>
	<path fill="#FFFFFF" d="M309.3,597.4c0,1.1-1.2,2.1-2.7,2.1h-97.4c-1.5,0-2.7-0.9-2.7-2.1v-42.8c0-1.1,1.2-2.1,2.7-2.1h97.4
		c1.5,0,2.7,0.9,2.7,2.1V597.4z"/>
	<rect x="210.6" y="555.9" fill="#401D35" width="94.8" height="40.2"/>
	<path fill="#401D35" d="M259,554.2c0,0.5-0.5,0.9-1.1,0.9c-0.6,0-1.1-0.4-1.1-0.9c0-0.5,0.5-0.9,1.1-0.9
		C258.5,553.3,259,553.7,259,554.2z"/>
	<path fill="#FFFFFF" d="M317.7,607.8c0.2,0.2-1.8,0.4-3.5,0.4H201.5c-1.7,0-3.7-0.2-3.5-0.4l8-7.9c0.2-0.2,1.6-0.4,3.1-0.4h97.4
		c1.5,0,2.9,0.2,3.1,0.4L317.7,607.8z"/>
	<path fill="#DFEFF6" d="M317.9,608.8c0,0.5-1.2,0.9-2.7,0.9H200.6c-1.5,0-2.7-0.4-2.7-0.9v-0.6c0-0.5,1.2-0.9,2.7-0.9h114.6
		c1.5,0,2.7,0.4,2.7,0.9V608.8z"/>
	<polygon fill="#FFFFFF" points="209.4,600.5 208.5,601.5 307.7,601.5 306.7,600.5 	"/>
	<polygon fill="#A6B3B8" points="208.1,602 207.2,603 309.2,603 308.2,602 	"/>
	<polygon fill="#A6B3B8" points="207,603.5 206.1,604.5 310.5,604.5 309.7,603.5 	"/>
	<g>
		<polygon fill="#D2004E" points="259.1,606.6 275,606.6 274.3,605 259.1,605 		"/>
		<polygon fill="#D2004E" points="257.2,605 241.9,605 241.4,606.6 257.2,606.6 		"/>
	</g>
</g>
<g>
	<rect x="830.8" y="473.7" fill="#401D35" width="306.2" height="8.4"/>
	<polygon fill="#AD262B" points="867.2,474.1 854.4,473 863,413.3 875.8,414.4 	"/>
	<rect x="874.7" y="420.2" fill="#63A17C" width="26.3" height="53.5"/>
	<rect x="901" y="402.3" fill="#BD6643" width="13.4" height="71.5"/>
	<rect x="918.7" y="413.7" fill="#FFFFFF" width="19.8" height="60"/>
	<rect x="938.5" y="424.3" fill="#D2004E" width="16.6" height="49.5"/>
	<rect x="1009.8" y="455.4" fill="#BD6643" width="101.8" height="18.4"/>
	<rect x="997.6" y="444.8" fill="#FFFFFF" width="84.4" height="10.6"/>
	<rect x="1017.3" y="435.8" fill="#401D35" width="79.6" height="9"/>
	<g>
		<rect x="863.2" y="480.5" fill="#401D35" width="9.6" height="11.7"/>
		<rect x="1094.9" y="480.5" fill="#401D35" width="9.6" height="11.7"/>
	</g>
	<rect x="1023.3" y="455.4" fill="#A15739" width="7.2" height="18.4"/>
	<rect x="1063.4" y="444.8" fill="#E8E8E8" width="8.3" height="10.6"/>
</g>
<g>
	<g>
		<g>
			<path fill="#E0E0E0" d="M508.1,496.9V262.6h0.3v-5.9c0-56.4,60.2-102.3,134.2-102.3c74,0,134.2,45.9,134.2,102.3v5.9h0.3v234.3
				H508.1z"/>
			<path fill="#FFFFFF" d="M642.6,160.3c69.7,0,126.5,43.2,126.5,96.4v11.9h0.3V491H515.8V268.5h0.3v-11.9
				C516.2,203.5,572.9,160.3,642.6,160.3 M642.6,148.4c-78.4,0-142,48.5-142,108.2h-0.3v246.2H785V256.6h-0.3
				C784.6,196.9,721.1,148.4,642.6,148.4L642.6,148.4z"/>
		</g>
		<path fill="#BFBFBF" d="M516,461.3c0,0,137.6-3,253.5,16.1v14L516,490.8V461.3z"/>
		<rect x="632.9" y="148.7" fill="#FFFFFF" width="19.5" height="348.3"/>
		<path opacity="0.7" fill="#FFFFFF" d="M769.4,332.4c-2.1-0.8-4.5-1.2-7-1.2c-2.8,0-5.5,0.6-7.8,1.5c0-0.2,0-0.5,0-0.7
			c0-10-10.7-18.2-23.9-18.2c-10.8,0-19.9,5.4-22.8,12.9c-2.1-1-4.5-1.5-7.1-1.5c-7.7,0-13.9,4.7-13.9,10.6c0,1.2,0.3,2.3,0.7,3.3
			c-2-1.4-4.7-2.3-7.6-2.3c-6.3,0-11.4,3.9-11.4,8.7c0,0.7,0.1,1.3,0.3,1.9h100.5V332.4z"/>
		<path opacity="0.7" fill="#FFFFFF" d="M621.1,403.4c0.1-0.5,0.2-1,0.2-1.6c0-3.9-4.2-7.1-9.3-7.1c-2.4,0-4.6,0.7-6.3,1.9
			c0.4-0.9,0.6-1.8,0.6-2.7c0-4.8-5.1-8.7-11.4-8.7c-2.1,0-4.1,0.5-5.8,1.2c-2.4-6.1-9.9-10.6-18.8-10.6c-10.8,0-19.6,6.7-19.6,14.9
			c0,0.2,0,0.4,0,0.6c-1.9-0.8-4.1-1.3-6.4-1.3c-7.3,0-13.2,4.5-13.2,10.1c0,1.2,0.3,2.3,0.7,3.3H621.1z"/>
	</g>
	<rect x="509.7" y="236.9" fill="#FFFFFF" width="262.4" height="13.4"/>
</g>
<g>
	<path fill="#401D35" d="M695,486.3c0,0,8-20.3-14.1-38.4C681,447.9,674.9,464.9,695,486.3z"/>
	<path fill="#401D35" d="M692.3,490.3c0,0,22.3-4.2,21.8-28.2C714,462.2,695.8,466.2,692.3,490.3z"/>
	<path fill="#AD262B" d="M680.5,483.5h15.9h15.9c0,0,17.7,13.4,3.7,30h-19.6h-19.6C662.8,496.9,680.5,483.5,680.5,483.5z"/>
</g>
<g>
	<polygon opacity="0.1" points="210.2,472.1 127,472.1 122.9,467.1 122.9,405.6 203.6,405.6 210.2,409.1 	"/>
	<g>
		<g>
			<rect x="124.8" y="407.2" fill="#FFFFFF" width="76.9" height="58.6"/>
			<path fill="#87DAFF" d="M202.3,466.3h-78.1v-59.5h78.1V466.3z M125.5,465.3h75.6v-57.6h-75.6V465.3z"/>
		</g>
		<path fill="#BD6643" d="M199.8,408.7v55.7h-73v-55.7H199.8 M203.6,405.8h-80.7v61.5h80.7V405.8L203.6,405.8z"/>
	</g>
	<rect x="139.9" y="418.7" fill="#73BA8F" width="46.6" height="35.5"/>
</g>
<g>
	<polygon opacity="0.1" points="445.5,461.4 384.9,461.4 381.9,457.8 381.9,412.9 440.7,412.9 445.5,415.5 	"/>
	<g>
		<rect x="383.3" y="414.1" fill="#401D35" width="56.1" height="42.7"/>
		<path fill="#FFFFFF" d="M438,415.2v40.6h-53.3v-40.6H438 M440.7,413.1h-58.9v44.9h58.9V413.1L440.7,413.1z"/>
	</g>
	<rect x="394.3" y="422.5" fill="#AD262B" width="34" height="25.9"/>
</g>
<g>
	<g>
		<rect x="152.6" y="260.7" fill="#FFFFFF" width="276.1" height="87.7"/>
		<path fill="#401D35" d="M434.5,352.9H146.8v-96.6h287.7V352.9z M158.4,344.1h264.5v-78.9H158.4V344.1z"/>
	</g>
	<rect x="173.2" y="315.5" fill="#BD6643" width="56.2" height="20.7"/>
	<rect x="228.5" y="273.1" fill="#BFBFBF" width="56.2" height="31.5"/>
	<rect x="283.8" y="273.1" fill="#D2004E" width="56.2" height="63"/>
	<rect x="360.1" y="304.6" fill="#73BA8F" width="45.3" height="31.5"/>
</g>
<g>
	<ellipse opacity="0.2" cx="293.8" cy="442.9" rx="59.4" ry="46.1"/>
	<g>
		<ellipse fill="#D2004E" cx="290.6" cy="441.3" rx="58.2" ry="44.4"/>
		<path fill="#B5004B" d="M290.6,402.3c28.2,0,51.1,17.5,51.1,39c0,21.5-22.9,39-51.1,39c-28.2,0-51.1-17.5-51.1-39
			C239.5,419.8,262.4,402.3,290.6,402.3 M290.6,400.3c-29.7,0-53.8,18.4-53.8,41c0,22.6,24.1,41,53.8,41c29.7,0,53.8-18.4,53.8-41
			C344.4,418.6,320.3,400.3,290.6,400.3L290.6,400.3z"/>
		<ellipse fill="#FFFFFF" cx="290.6" cy="441.3" rx="44" ry="33.5"/>
		<ellipse fill="#BD6643" cx="290.6" cy="412.6" rx="3.2" ry="2.5"/>
		<ellipse fill="#BD6643" cx="290.6" cy="469" rx="3.2" ry="2.5"/>
		<ellipse fill="#BD6643" cx="253.3" cy="441.3" rx="3.2" ry="2.5"/>
		<ellipse fill="#828487" cx="258.2" cy="428.2" rx="2.2" ry="1.7"/>
		<ellipse fill="#828487" cx="270.5" cy="417.7" rx="2.2" ry="1.7"/>
		<ellipse fill="#828487" cx="270.5" cy="464.9" rx="2.2" ry="1.7"/>
		<ellipse fill="#828487" cx="311" cy="417.7" rx="2.2" ry="1.7"/>
		<ellipse fill="#828487" cx="311" cy="464.9" rx="2.2" ry="1.7"/>
		<ellipse fill="#828487" cx="258.2" cy="455" rx="2.2" ry="1.7"/>
		<ellipse fill="#828487" cx="323" cy="455" rx="2.2" ry="1.7"/>
		<ellipse fill="#828487" cx="323.3" cy="428.2" rx="2.2" ry="1.7"/>
		<ellipse fill="#BD6643" cx="328" cy="441.3" rx="3.2" ry="2.5"/>
		<g opacity="0.2">
			<path d="M291.3,442.2c0.5,0.3,0.5,0.8,0.1,1.2l0,0c-0.4,0.4-1.1,0.4-1.6,0.1l-29-19.2c-0.5-0.3-0.5-0.8-0.1-1.2l0,0
				c0.4-0.4,1.1-0.4,1.6-0.1L291.3,442.2z"/>
			<path d="M291.5,443.4c-0.5,0.4-1.3,0.4-1.8,0.1l0,0c-0.5-0.4-0.6-1-0.1-1.4l17.1-14.4c0.5-0.4,1.3-0.4,1.8-0.1l0,0
				c0.5,0.4,0.6,1,0.1,1.4L291.5,443.4z"/>
		</g>
		<g>
			<path fill="#414F5C" d="M291.3,440.8c0.5,0.3,0.5,0.8,0.1,1.2l0,0c-0.4,0.4-1.1,0.4-1.6,0.1l-29-19.2c-0.5-0.3-0.5-0.8-0.1-1.2
				l0,0c0.4-0.4,1.1-0.4,1.6-0.1L291.3,440.8z"/>
			<path fill="#414F5C" d="M291.5,442c-0.5,0.4-1.3,0.4-1.8,0.1l0,0c-0.5-0.4-0.6-1-0.1-1.4l17.1-14.4c0.5-0.4,1.3-0.4,1.8-0.1l0,0
				c0.5,0.4,0.6,1,0.1,1.4L291.5,442z"/>
		</g>
	</g>
</g>
<ellipse opacity="0.2" cx="558.2" cy="735.8" rx="38.4" ry="1.9"/>
<g>
	<rect x="517.8" y="687" fill="#401D35" width="81.5" height="34.6"/>
	<path fill="#AD262B" d="M517.8,687c0,0,39.6-14.9,81.5,0H517.8z"/>
	<g>
		<ellipse fill="#401D35" cx="530.5" cy="723.1" rx="7.2" ry="3.5"/>
		<ellipse fill="#401D35" cx="530.5" cy="727.5" rx="4" ry="2.6"/>
		<rect x="528.5" y="729.6" fill="#401D35" width="4" height="7"/>
	</g>
	<g>
		<ellipse fill="#401D35" cx="586.9" cy="723.1" rx="7.2" ry="3.5"/>
		<ellipse fill="#401D35" cx="586.9" cy="727.5" rx="4" ry="2.6"/>
		<rect x="584.9" y="729.6" fill="#401D35" width="4" height="7"/>
	</g>
</g>
<g>
	<g>
		<g>
			<g>
				<polygon fill="#401D35" points="684.9,705.2 671.4,705.2 684.9,734.7 698.5,705.2 				"/>
				<ellipse fill="#401D35" cx="684.9" cy="732.8" rx="7.9" ry="5.4"/>
				<rect x="681.6" y="734.7" fill="#401D35" width="6.7" height="6.7"/>
			</g>
			<g>
				<polygon fill="#401D35" points="1150.5,705.2 1137,705.2 1150.5,734.7 1164.1,705.2 				"/>
				<ellipse fill="#401D35" cx="1150.5" cy="732.8" rx="7.9" ry="5.4"/>
				<rect x="1147.2" y="734.7" fill="#401D35" width="6.7" height="6.7"/>
			</g>
		</g>
		<path fill="#BD6643" d="M1185.6,619.9c-50.2-41.3-149.1-69.4-263.1-69.4c-113.9,0-212.9,28.1-263.1,69.4v43.7h526.2V619.9z"/>
		<path fill="#401D35" d="M1184.3,659.5c0,5.9-14.7,10.8-32.8,10.8H693.5c-18.1,0-32.8-4.8-32.8-10.8l0,0c0-5.9,14.7-10.8,32.8-10.8
			h458.1C1169.6,648.7,1184.3,653.5,1184.3,659.5L1184.3,659.5z"/>
		<rect x="662.8" y="665.7" fill="#AD262B" width="509.8" height="55.1"/>
		<g>
			<ellipse fill="#D2004E" cx="644.9" cy="642.7" rx="31.2" ry="23.8"/>
			<path fill="#D2004E" d="M626.3,661.9c0,0,17.6,6,18.5,58.9h31.2v-78.1L626.3,661.9z"/>
		</g>
		<g>
			<ellipse fill="#D2004E" cx="1192.4" cy="642.7" rx="31.2" ry="23.8"/>
			<path fill="#D2004E" d="M1210.9,661.9c0,0-17.6,6-18.5,58.9h-31.2v-78.1L1210.9,661.9z"/>
		</g>
	</g>
	<path fill="#FFFFFF" d="M1124.7,660.3c0,0,24.2-18,29-42.1c-21.8-17.8-55.2-22.1-55.2-22.1s-24.2,18-29,42.1
		C1091.4,655.9,1124.7,660.3,1124.7,660.3z"/>
	<path fill="#BFBFBF" d="M1094.2,645.9c0,0,2.9-25.7-14.2-46.3c-31.8-2.5-60.7,10.8-60.7,10.8s-2.9,25.7,14.2,46.3
		C1065.3,659.3,1094.2,645.9,1094.2,645.9z"/>
</g>
<g>
	<g opacity="0.2">
		<polygon points="980.1,828.1 332.5,828.1 372.1,790.5 931.5,790.5 		"/>
	</g>
	<g>
		<polygon fill="#C4C4C4" points="326.6,821.6 360.2,789.7 916.3,789.7 957.5,821.6 		"/>
		<path fill="#FFFFFF" d="M914.8,792.5l33.9,26.3H334.4l27.6-26.3H914.8 M917.9,786.8H358.4l-39.5,37.6h647.6L917.9,786.8
			L917.9,786.8z"/>
	</g>
</g>
<rect x="461.1" y="146.4" fill="#401D35" width="359" height="4.6"/>
<rect x="-2.8" y="-50.5" fill="none" width="1286.2" height="980.3"/>
</svg>
