<?xml version="1.0" encoding="utf-8"?>
<!-- Generator: Adobe Illustrator 18.1.0, SVG Export Plug-In . SVG Version: 6.00 Build 0)  -->
<svg version="1.1" id="Layer_1" xmlns="http://www.w3.org/2000/svg" xmlns:xlink="http://www.w3.org/1999/xlink" x="0px" y="0px"
	 viewBox="808.8 376.8 321 216" enable-background="new 808.8 376.8 321 216" xml:space="preserve">
<rect x="1688.9" y="816.1" fill="#9FC44E" width="374.5" height="247.7"/>
<g>
	<path fill="#DD6B1F" d="M1004.8,537c8.4-9.9,23-22.7,44.5-27.7c2.6-0.6,3.4-1,3.6-1.2c0.4-0.5,0.3-0.8,0.3-0.9
		c-0.1-1-1.9-2.3-3.2-3.2c-0.7-0.5-1.3-0.9-1.8-1.3c-2.5-2.3-4.8-4.9-6.7-7.1c-2.1-2.4-7.2-13.4-11.9-23.6l-1.4-2.9
		c-2.8-5.9-6-11.6-9.6-17c-7.2-10.7-16.1-20.3-26.3-28.6C974,408.8,952,401,928.6,401c-3.7,0-7.5,0.2-11.3,0.6
		c-27.1,3-51.5,16.3-68.6,37.6c-28,34.9-22.4,86.1,12.5,114.1c11.4,9.1,25.7,14.2,40.3,14.2c8.3,0,16.4-1.6,24.1-4.7
		c10.1-4.1,19.1-10.8,25.9-19.3c8.5-10.6,12.4-23.8,10.9-37.3c-1.5-13.5-8.1-25.6-18.7-34.1c-7.1-5.7-15.9-8.8-25-8.8
		c-12.2,0-23.6,5.4-31.3,14.9c-10.8,13.5-8.6,33.3,4.9,44.1c5.1,4.1,11.4,6,18,5.2c6.5-0.7,12.4-3.9,16.5-9
		c6.5-8.2,5.2-20.1-2.9-26.7c-3-2.4-6.8-3.5-10.7-3.1c-3.9,0.4-7.3,2.3-9.8,5.3l-0.4,0.3c-0.1,0.1-0.7,0.4-1.6,0.4
		c-0.9,0-1.7-0.3-2.3-1c-1.1-1.1-1-2.6-0.8-3.2l0.2-0.4c3.5-4.3,8.4-7,14-7.6c5.6-0.6,10.9,1,15.3,4.5c10.8,8.7,12.6,24.6,3.9,35.4
		c-5.2,6.4-12.5,10.4-20.6,11.3c-8.3,0.9-16.2-1.4-22.6-6.6c-16.1-13-18.7-36.7-5.8-52.9c8.8-11,22-17.3,36.1-17.3
		c10.5,0,20.8,3.6,28.9,10.2c11.9,9.5,19.3,23.1,21,38.2c1.7,15.2-2.7,30-12.2,41.9c-2.9,3.6-6.1,6.8-9.6,9.8
		c-0.6,0.5-1.5,1.1-2.6,1.9c-1.7,1.2-6.2,4.2-6.3,5.4c0,0.2,0,0.4,0.3,0.7c1.2,1.3,5,2.1,11.2,2.3l0.3,0c11.3,0.5,21.3-2.1,30.5-7.9
		C990.4,553,1000,542.6,1004.8,537z"/>
	<path fill="#DD6B1F" d="M1096.8,486.6c-1.5-1.8-5.5-9.2-6.6-12c-2.3-5.9-2.7-14.3-0.9-21.9l0.5-2.1c0.5-2.2,1-4.3,1.3-6.6
		c0.3-1.9-0.3-3.1-1.9-4c-1.2-0.6-2.5-0.8-4.2-0.4l-0.5,0.1v-27.6c1.8-0.6,3.2-2.3,3.2-4.4c0-2.6-2.1-4.7-4.7-4.7
		c-2.6,0-4.7,2.1-4.7,4.7c0,2,1.3,3.6,3,4.3v29c-1.3,0.7-2.5,1.4-3.6,2.1l-1,0.6c-0.6,0.4-1.1,0.7-1.6,1.1l-0.8,0.6v-22.1
		c1.7-0.7,3-2.3,3-4.3c0-2.6-2.1-4.7-4.7-4.7s-4.7,2.1-4.7,4.7c0,2.1,1.4,3.7,3.2,4.4v25.3c-2.5,3-4.2,6.6-5.2,11.2
		c-1,4.9-1.3,10.1-0.6,15.4c0.2,1.7,0.5,3.3,0.7,5c0.5,2.9,0.9,5.9,1,9l0,0.6c0.2,3.3,0.7,13.2-7.1,20.5c-2.4,2.2-6.3,3.2-10.4,4.3
		c-2.2,0.6-4.4,1.2-6.6,2c-3.5,1.3-7.1,3-11.4,5.4c-7.2,4-14,9.4-20.2,16c-1.9,2-3.8,4.1-5.7,6.2c-4.6,5-8.9,9.8-12.3,12.6
		c-4.8,4-9.5,7.3-17.6,10.9l-0.1,0c1.1,0.1,2.3,0.1,3.4,0.2c2.8,0.1,5.7,0.3,8.5,0.4c2.2,0.1,7.3,0.1,13.7,0.1h0
		c14.8,0,35.5-0.3,49-1c27.7-1.6,57.3-21.9,57.3-49.7C1107.8,506.6,1103.9,495.4,1096.8,486.6z"/>
</g>
</svg>
