<?xml version="1.0" encoding="utf-8"?>
<!-- Generator: Adobe Illustrator 18.1.0, SVG Export Plug-In . SVG Version: 6.00 Build 0)  -->
<svg version="1.1" id="Layer_1" xmlns="http://www.w3.org/2000/svg" xmlns:xlink="http://www.w3.org/1999/xlink" x="0px" y="0px"
	 viewBox="0 0 60 60" enable-background="new 0 0 60 60" xml:space="preserve">
<g>
	<g>
		<path d="M37.5,19.5c-2.2-3.6-4.5-5.3-7-5.3c-0.7,0-1.4,0.2-2.2,0.5c-1.4,0.6-3.4,3-5.6,6.3c-0.1,0.1-0.2,0.3-0.3,0.5
			C14.9,33,4.6,55.1,3.1,58.3c-0.2,0.4-0.1,0.9,0.3,1.2c0.2,0.2,0.4,0.2,0.7,0.2c0.2,0,0.4-0.1,0.5-0.2c3.8-2.6,37.2-24.9,39-31.7
			C44.4,25.5,43.8,22.1,37.5,19.5z M41.7,27.3c-0.7,2.6-7.7,8.5-16.3,15c-2.5-1-3.8-3.5-3.8-3.5c-0.3-0.5-0.9-0.7-1.3-0.4
			c-0.4,0.3-0.7,0.9-0.4,1.4c0.1,0.1,1.3,2.5,3.8,4C18.1,48,12,52.3,6.6,55.9c1.1-2.5,2.5-5.1,3.7-7.8c0.6,0.6,1.4,1.2,2.7,1.3H13
			c0.5,0,0.9-0.4,1-0.9c0.1-0.5-0.3-1.1-0.8-1.1c-1.3-0.2-1.8-1-1.9-1.4c3.9-7.9,8.1-15.9,11.7-21.5c0.7,2,2.6,5.1,6.8,8.4
			c0.2,0.1,0.4,0.2,0.6,0.2c0.3,0,0.6-0.1,0.8-0.4c0.3-0.4,0.2-1.1-0.2-1.4c-5.6-4.3-6.4-8.1-6.5-9.1c1.9-3,3.7-5,4.8-5.5
			c0.5-0.2,0.9-0.3,1.3-0.3c2.3,0,4.2,2.6,5.4,4.6c0.1,0.2,0.3,0.3,0.5,0.4C40.6,22.9,42.3,25,41.7,27.3z M38.2,19.3
			c0.2,0.2,0.4,0.2,0.7,0.2s0.6-0.1,0.8-0.3l5.8-6.8c0.4-0.4,0.3-1.1-0.1-1.4c-0.4-0.4-1-0.3-1.4,0.1l-5.8,6.8
			C37.7,18.3,37.8,18.9,38.2,19.3z M38.3,15.8c0.1,0.1,0.1,0.1,0.2,0.1c0.1,0.1,0.3,0.1,0.5,0.1c0.3,0,0.6-0.1,0.8-0.4
			c1.8-2.2,2.8-4.9,2.5-7.8c-0.2-2.9-1.5-5.4-3.7-7.3c0,0,0,0-0.1,0c-0.4-0.3-1-0.3-1.3,0.1C33.4,5.2,33.9,12,38.3,15.8z M38,3
			c1.2,1.4,2,3.2,2.2,5c0.1,1.9-0.3,3.8-1.3,5.3C36.3,10.5,36,6.2,38,3z M56.8,17.8c-4-4.3-10.7-4.5-15-0.5c-0.4,0.4-0.4,1-0.1,1.4
			l0,0c2,2.3,4.9,3.4,7.7,3.4c2.6,0,5.1-0.9,7.2-2.9c0.1-0.1,0.2-0.2,0.2-0.3l0,0c0-0.1,0.1-0.2,0.1-0.4C57.1,18.2,57,18,56.8,17.8z
			 M44.2,18c3.2-2.3,7.4-2,10.4,0.4C51.4,20.7,47.2,20.5,44.2,18z"/>
	</g>
</g>
</svg>
